<svg xmlns="http://www.w3.org/2000/svg" width="453.533" height="444.276" viewBox="0 0 453.533 444.276"><defs><style>.a,.d,.e,.f,.h{fill:#fff;}.b{fill:none;stroke:#407bff;stroke-miterlimit:10;stroke-width:3px;}.c{fill:#407bff;}.d{opacity:0.3;}.e{opacity:0.5;}.f{opacity:0.7;}.g{fill:#0077b6;font-size:7px;font-family:SegoeUI, Segoe UI;}.h{opacity:0.75;}</style></defs><g transform="translate(-812.253 -157.488)"><path class="a" d="M13.411,133.98a9.935,9.935,0,1,1,9.919-9.935,9.935,9.935,0,0,1-9.919,9.935Z" transform="translate(882.179 593.936) rotate(-90)"/><circle class="b" cx="16.338" cy="16.338" r="16.338" transform="translate(1018.369 599.959) rotate(-166.72)"/><rect class="c" width="270.949" height="3.226" transform="translate(1004.579 565.814) rotate(-90)"/><path class="c" d="M13.836,156.6H10.61V137.243a1.613,1.613,0,0,1,.484-1.145l98.638-98.38a1.613,1.613,0,0,1,1.145-.468h90.042v3.226H111.538L13.836,137.9Z" transform="translate(835.08 592.553) rotate(-90)"/><path class="c" d="M247.69,262.5H126.731a1.613,1.613,0,0,1-1.129-.484L11.094,147.507a1.613,1.613,0,0,1-.484-1.129V130.25h3.226V145.7L127.36,259.273H247.642Z" transform="translate(892.069 592.553) rotate(-90)"/><path class="c" d="M80.69,138.636l-2.29-2.274,43.416-43.674a1.613,1.613,0,0,1,1.145-.468h65.447v3.226H123.623Z" transform="translate(868.765 551.012) rotate(-90)"/><path class="c" d="M340.106,81.164H84.043A1.613,1.613,0,0,1,82.9,80.68L57.19,54.714,59.5,52.44l25.224,25.5H340.106Z" transform="translate(844.388 564.01) rotate(-90)"/><path class="c" d="M91.87,55.974,89.58,53.7l41.933-41.933a1.613,1.613,0,0,1,1.145-.468H267.051v3.226H133.3Z" transform="translate(819.178 544.16) rotate(-90)"/><path class="c" d="M132.138,301.115,67.094,236.136a1.613,1.613,0,0,1-.484-1.129V196.3h3.226v38.03l64.512,64.512Z" transform="translate(932.544 558.236) rotate(-90)"/><path class="c" d="M99.03,229.037l-2.29-2.274L139.5,183.718a1.613,1.613,0,0,1,1.145-.468H302.967v3.226H141.318Z" transform="translate(924.547 539.773) rotate(-90)"/><path class="c" d="M236.773,258.56h-72.3a1.613,1.613,0,0,1-1.145-.484L117.91,212.66l2.274-2.29,44.948,44.965h71.64Z" transform="translate(941.166 526.801) rotate(-90)"/><circle class="c" cx="7.387" cy="7.387" r="7.387" transform="translate(824.624 284.513) rotate(-90)"/><path class="c" d="M144.1,61.809a17.079,17.079,0,1,1,17.079-17.063A17.079,17.079,0,0,1,144.1,61.809Zm0-30.917a13.854,13.854,0,1,0,13.854,13.854A13.854,13.854,0,0,0,144.1,30.892Z" transform="translate(829.197 521.219) rotate(-90)"/><circle class="a" cx="7.387" cy="7.387" r="7.387" transform="translate(866.556 384.506) rotate(-90)"/><path class="c" d="M242.825,72.217a7.4,7.4,0,1,1-7.4-7.387A7.4,7.4,0,0,1,242.825,72.217Z" transform="translate(851.98 459.326) rotate(-90)"/><circle class="c" cx="7.387" cy="7.387" r="7.387" transform="translate(955.26 369.99) rotate(-90)"/><path class="c" d="M204.1,143.809a17.079,17.079,0,1,1,17.079-17.063A17.079,17.079,0,0,1,204.1,143.809Zm0-30.917a13.854,13.854,0,1,0,13.854,13.854A13.854,13.854,0,0,0,204.1,112.892Z" transform="translate(879.446 484.451) rotate(-90)"/><circle class="a" cx="7.387" cy="7.387" r="7.387" transform="translate(998.805 287.738) rotate(-90)"/><circle class="c" cx="7.387" cy="7.387" r="7.387" transform="translate(1102.023 244.192) rotate(-90)"/><path class="c" d="M173.087,234.627a17.063,17.063,0,1,1,17.079-17.063,17.063,17.063,0,0,1-17.079,17.063Zm0-30.9a13.838,13.838,0,1,0,13.854,13.838A13.838,13.838,0,0,0,173.087,203.726Z" transform="translate(935.118 503.436) rotate(-90)"/><path class="a" d="M176.825,213.887a7.4,7.4,0,1,1-7.4-7.387A7.4,7.4,0,0,1,176.825,213.887Z" transform="translate(938.794 499.771) rotate(-90)"/><circle class="c" cx="7.387" cy="7.387" r="7.387" transform="translate(1190.727 297.415) rotate(-90)"/><path class="c" d="M118.155,263.387A7.4,7.4,0,1,1,110.85,256a7.4,7.4,0,0,1,7.306,7.387Z" transform="translate(969.127 535.723) rotate(-90)"/><rect class="d" width="31.804" height="41.529" rx="1.51" transform="translate(812.253 260.095) rotate(-90)"/><rect class="a" width="22.305" height="2.242" transform="translate(818.14 255.354) rotate(-90)"/><rect class="a" width="22.305" height="2.242" transform="translate(822.075 255.354) rotate(-90)"/><rect class="a" width="22.305" height="2.242" transform="translate(826.011 255.354) rotate(-90)"/><rect class="a" width="22.305" height="2.242" transform="translate(829.93 255.354) rotate(-90)"/><rect class="a" width="22.305" height="2.242" transform="translate(833.865 255.354) rotate(-90)"/><rect class="a" width="22.305" height="2.242" transform="translate(837.784 255.354) rotate(-90)"/><rect class="a" width="22.305" height="2.242" transform="translate(841.719 255.354) rotate(-90)"/><rect class="a" width="14.451" height="2.242" transform="translate(845.638 255.354) rotate(-90)"/><rect class="d" width="31.804" height="41.529" rx="1.51" transform="translate(1077.154 223.903) rotate(-90)"/><rect class="a" width="22.305" height="2.242" transform="translate(1083.057 219.146) rotate(-90)"/><rect class="a" width="22.305" height="2.242" transform="translate(1086.976 219.146) rotate(-90)"/><rect class="a" width="22.305" height="2.242" transform="translate(1090.911 219.146) rotate(-90)"/><rect class="a" width="22.305" height="2.242" transform="translate(1094.83 219.146) rotate(-90)"/><rect class="a" width="22.305" height="2.242" transform="translate(1098.766 219.146) rotate(-90)"/><rect class="a" width="22.305" height="2.242" transform="translate(1102.685 219.146) rotate(-90)"/><rect class="a" width="22.305" height="2.242" transform="translate(1106.62 219.146) rotate(-90)"/><rect class="a" width="14.451" height="2.242" transform="translate(1110.555 219.146) rotate(-90)"/><rect class="d" width="53.804" height="41.529" rx="1.51" transform="translate(903.877 211.292) rotate(-90)"/><rect class="d" width="31.804" height="41.529" rx="1.51" transform="translate(1224.257 409.358) rotate(-90)"/><rect class="a" width="22.305" height="2.242" transform="translate(1230.144 404.601) rotate(-90)"/><rect class="a" width="22.305" height="2.242" transform="translate(1234.079 404.601) rotate(-90)"/><rect class="a" width="22.305" height="2.242" transform="translate(1238.014 404.601) rotate(-90)"/><rect class="a" width="22.305" height="2.242" transform="translate(1241.933 404.601) rotate(-90)"/><rect class="a" width="22.305" height="2.242" transform="translate(1245.868 404.601) rotate(-90)"/><rect class="a" width="22.305" height="2.242" transform="translate(1249.787 404.601) rotate(-90)"/><rect class="a" width="22.305" height="2.242" transform="translate(1253.723 404.601) rotate(-90)"/><rect class="a" width="14.451" height="2.242" transform="translate(1257.642 404.601) rotate(-90)"/><rect class="d" width="74.188" height="74.188" rx="1.54" transform="translate(968.21 256.24) rotate(-90)"/><circle class="e" cx="24.998" cy="24.998" r="24.998" transform="translate(980.306 244.145) rotate(-90)"/><path class="f" d="M245.058,129.2h25a25,25,0,1,1-12.515-21.66Z" transform="translate(876.105 464.205) rotate(-90)"/><circle class="a" cx="19.353" cy="19.353" r="19.353" transform="translate(985.951 238.5) rotate(-90)"/><text class="g" transform="translate(1007.401 227.597) rotate(-90)"><tspan x="0" y="0">80%</tspan></text><rect class="d" width="56.448" height="56.448" rx="1.17" transform="translate(1124.731 308.011) rotate(-90)"/><rect class="e" width="7.258" height="3.693" transform="translate(1171.696 269.062) rotate(-90)"/><rect class="a" width="7.258" height="3.693" transform="translate(1134.86 269.062) rotate(-90)"/><rect class="a" width="7.258" height="3.693" transform="translate(1141.004 269.062) rotate(-90)"/><rect class="h" width="7.258" height="3.693" transform="translate(1147.133 269.062) rotate(-90)"/><rect class="e" width="7.258" height="3.693" transform="translate(1153.278 269.062) rotate(-90)"/><rect class="e" width="7.258" height="3.693" transform="translate(1159.423 269.062) rotate(-90)"/><rect class="e" width="7.258" height="3.693" transform="translate(1165.567 269.062) rotate(-90)"/><rect class="e" width="7.258" height="3.693" transform="translate(1171.696 278.933) rotate(-90)"/><rect class="a" width="7.258" height="3.693" transform="translate(1153.278 278.933) rotate(-90)"/><rect class="h" width="7.258" height="3.693" transform="translate(1159.423 278.933) rotate(-90)"/><rect class="e" width="7.258" height="3.693" transform="translate(1165.567 278.933) rotate(-90)"/><rect class="e" width="7.258" height="3.693" transform="translate(1171.696 288.818) rotate(-90)"/><rect class="a" width="7.258" height="3.693" transform="translate(1147.133 288.818) rotate(-90)"/><rect class="h" width="7.258" height="3.693" transform="translate(1153.278 288.818) rotate(-90)"/><rect class="e" width="7.258" height="3.693" transform="translate(1159.423 288.818) rotate(-90)"/><rect class="e" width="7.258" height="3.693" transform="translate(1165.567 288.818) rotate(-90)"/><rect class="e" width="7.258" height="3.693" transform="translate(1171.696 298.688) rotate(-90)"/><rect class="a" width="7.258" height="3.693" transform="translate(1159.423 298.688) rotate(-90)"/><rect class="h" width="7.258" height="3.693" transform="translate(1165.567 298.688) rotate(-90)"/><rect class="d" width="56.448" height="56.448" rx="1.17" transform="translate(853.105 351.169) rotate(-90)"/><path class="a" d="M182.14,43.853V40.37l-1.822-.161a9.321,9.321,0,0,0-1.355-3.226l1.177-1.4-2.5-2.5-1.419,1.161A9.676,9.676,0,0,0,173,32.886l-.177-1.806H169.3l-.177,1.806a9.677,9.677,0,0,0-3.226,1.355L164.48,33.08l-2.5,2.5,1.177,1.4a9.322,9.322,0,0,0-1.355,3.226l-1.822.161v3.484l1.822.177a9.37,9.37,0,0,0,1.355,3.226l-1.177,1.419,2.5,2.484L165.9,50a9.129,9.129,0,0,0,3.226,1.355l.177,1.822h3.516l.1-1.742a9.128,9.128,0,0,0,3.226-1.355l1.419,1.161,2.58-2.548-1.177-1.419a9.37,9.37,0,0,0,1.355-3.226Zm-11.112,3.016a2.008,2.008,0,1,1,0,.048Z" transform="translate(831.299 501.021) rotate(-90)"/><path class="a" d="M189.218,49.04V46.282l-1.435-.145a7.128,7.128,0,0,0-1.064-2.548l.919-1.113-1.952-1.951-1.113.919a7.435,7.435,0,0,0-2.548-1.064l-.145-1.419h-2.758l-.129,1.419a7.516,7.516,0,0,0-2.564,1.064l-1.113-.919-1.952,1.951.919,1.113a7.435,7.435,0,0,0-1.064,2.548l-1.419.145V49.04l1.419.145a7.435,7.435,0,0,0,1.064,2.548l-.919,1.113,1.984,1.951,1.113-.919a7.515,7.515,0,0,0,2.564,1.064l.129,1.435h2.758l.145-1.435a7.435,7.435,0,0,0,2.548-1.064l1.113.919,1.951-1.951-.919-1.113a7.128,7.128,0,0,0,1.064-2.548Zm-8.709,2.371a3.758,3.758,0,1,1,3.742-3.742,3.758,3.758,0,0,1-3.742,3.742Z" transform="translate(836.128 493.777) rotate(-90)"/><path class="a" d="M179.254,53.285V50.962l-1.193-.113a6.29,6.29,0,0,0-.887-2.145l.758-.919-1.613-1.613-.919.758a6.29,6.29,0,0,0-2.145-.887l-.113-1.193H170.8l-.113,1.193a6.29,6.29,0,0,0-2.145.887l-.919-.758-1.613,1.613.774.919a6.016,6.016,0,0,0-.9,2.145l-1.193.113v2.322l1.193.113a5.983,5.983,0,0,0,.9,2.161l-.774.919,1.613,1.613.919-.774a6.016,6.016,0,0,0,2.145.9l.113,1.193h2.339l.113-1.193a6.016,6.016,0,0,0,2.145-.9l.919.774,1.613-1.613-.758-.919a6.242,6.242,0,0,0,.887-2.161Zm-7.306,2a3.226,3.226,0,1,1,3.145-3.226,3.226,3.226,0,0,1-3.145,3.226Z" transform="translate(839.737 498.135) rotate(-90)"/><rect class="d" width="49.593" height="32.256" transform="translate(946.115 349.798) rotate(-90)"/><rect class="d" width="49.593" height="32.256" transform="translate(1032.115 349.798) rotate(-90)"/><rect class="a" width="33.998" height="1.064" transform="translate(955.84 344.234) rotate(-90)"/><rect class="a" width="33.998" height="1.064" transform="translate(1041.84 344.234) rotate(-90)"/><rect class="a" width="16.321" height="1.064" transform="translate(959.082 344.234) rotate(-90)"/><rect class="a" width="16.321" height="1.064" transform="translate(1045.082 344.234) rotate(-90)"/><rect class="a" width="20.547" height="1.064" transform="translate(962.308 344.234) rotate(-90)"/><rect class="a" width="20.547" height="1.064" transform="translate(1048.308 344.234) rotate(-90)"/><rect class="a" width="7.241" height="1.064" transform="translate(965.549 344.234) rotate(-90)"/><rect class="a" width="7.241" height="1.064" transform="translate(1051.549 344.234) rotate(-90)"/><rect class="a" width="4.693" height="1.064" transform="translate(968.791 344.234) rotate(-90)"/><rect class="a" width="4.693" height="1.064" transform="translate(1054.791 344.234) rotate(-90)"/><rect class="d" width="49.593" height="32.256" transform="translate(1192.065 270.771) rotate(-90)"/><rect class="a" width="33.998" height="1.064" transform="translate(1201.791 265.207) rotate(-90)"/><rect class="a" width="16.321" height="1.064" transform="translate(1205.032 265.207) rotate(-90)"/><rect class="a" width="20.547" height="1.064" transform="translate(1208.258 265.207) rotate(-90)"/><rect class="a" width="7.241" height="1.064" transform="translate(1211.5 265.207) rotate(-90)"/><rect class="a" width="4.693" height="1.064" transform="translate(1214.741 265.207) rotate(-90)"/><g transform="translate(824.624 599.055) rotate(-90)"><rect class="a" width="270.174" height="3.226" transform="translate(34.014 179.955)"/><path class="a" d="M13.836,156.6H10.61V137.243a1.613,1.613,0,0,1,.484-1.145l98.638-98.38a1.613,1.613,0,0,1,1.145-.468h90.042v3.226H111.538L13.836,137.9Z" transform="translate(6.502 10.456)"/><path class="a" d="M247.69,262.5H126.731a1.613,1.613,0,0,1-1.129-.484L11.094,147.507a1.613,1.613,0,0,1-.484-1.129V130.25h3.226V145.7L127.36,259.273H247.642Z" transform="translate(6.502 67.446)"/><path class="a" d="M80.69,138.636l-2.29-2.274,43.416-43.674a1.613,1.613,0,0,1,1.145-.468h65.447v3.226H123.623Z" transform="translate(48.043 44.141)"/><path class="a" d="M80.69,92.22,78.4,94.48l43.416,43.4a1.618,1.618,0,0,0,1.145.465h65.447v-3.205H123.623Z" transform="translate(48.043 88.02)"/><path class="a" d="M340.106,81.164H84.043A1.613,1.613,0,0,1,82.9,80.68L57.19,54.714,59.5,52.44l25.224,25.5H340.106Z" transform="translate(35.045 19.765)"/><path class="a" d="M91.87,55.974,89.58,53.7l41.933-41.933a1.613,1.613,0,0,1,1.145-.468H267.051v3.226H133.3Z" transform="translate(54.894 -5.446)"/><path class="a" d="M132.138,301.115,67.094,236.136a1.613,1.613,0,0,1-.484-1.129V196.3h3.226v38.03l64.512,64.512Z" transform="translate(40.818 107.921)"/><path class="a" d="M99.03,229.037l-2.29-2.274L139.5,183.718a1.613,1.613,0,0,1,1.145-.468H302.967v3.226H141.318Z" transform="translate(59.281 99.924)"/><path class="a" d="M236.773,258.56h-72.3a1.613,1.613,0,0,1-1.145-.484L117.91,212.66l2.274-2.29,44.948,44.965h71.64Z" transform="translate(72.254 116.543)"/><circle class="a" cx="7.387" cy="7.387" r="7.387" transform="translate(314.542)"/><path class="a" d="M144.1,61.809a17.079,17.079,0,1,1,17.079-17.063A17.079,17.079,0,0,1,144.1,61.809Zm0-30.917a13.854,13.854,0,1,0,13.854,13.854A13.854,13.854,0,0,0,144.1,30.892Z" transform="translate(77.837 4.574)"/><path class="a" d="M242.825,72.217a7.4,7.4,0,1,1-7.4-7.387A7.4,7.4,0,0,1,242.825,72.217Z" transform="translate(139.728 27.357)"/><circle class="a" cx="7.387" cy="7.387" r="7.387" transform="translate(229.065 130.636)"/><circle class="a" cx="7.387" cy="7.387" r="7.387" transform="translate(229.065 216.636)"/><path class="a" d="M204.1,143.809a17.079,17.079,0,1,1,17.079-17.063A17.079,17.079,0,0,1,204.1,143.809Zm0-30.917a13.854,13.854,0,1,0,13.854,13.854A13.854,13.854,0,0,0,204.1,112.892Z" transform="translate(114.604 54.822)"/><circle class="a" cx="7.387" cy="7.387" r="7.387" transform="translate(354.862 277.4)"/><path class="a" d="M173.087,234.627a17.063,17.063,0,1,1,17.079-17.063,17.063,17.063,0,0,1-17.079,17.063Zm0-30.9a13.838,13.838,0,1,0,13.854,13.838A13.838,13.838,0,0,0,173.087,203.726Z" transform="translate(95.62 110.494)"/><circle class="a" cx="7.387" cy="7.387" r="7.387" transform="translate(301.64 366.103)"/><path class="a" d="M118.155,263.387A7.4,7.4,0,1,1,110.85,256a7.4,7.4,0,0,1,7.306,7.387Z" transform="translate(63.332 144.504)"/><path class="a" d="M18.757,146.153A18.757,18.757,0,1,1,37.513,127.4a18.757,18.757,0,0,1-18.757,18.757Zm0-32.675A13.918,13.918,0,1,0,32.675,127.4a13.918,13.918,0,0,0-13.918-13.918Z" transform="translate(0 54.203)"/></g><path class="a" d="M1195.305,647.63h-15.893a3.364,3.364,0,0,0-3.323,3.4v32.949a3.364,3.364,0,0,0,3.323,3.4h15.893a3.361,3.361,0,0,0,3.323-3.4V651.027A3.361,3.361,0,0,0,1195.305,647.63Zm-5.881,36.961a.808.808,0,0,1-.808.808H1186.1a.808.808,0,0,1-.809-.808v-1.385a.811.811,0,0,1,.809-.811h2.517a.809.809,0,0,1,.808.811Zm4.522-4.513h-13.174a1.62,1.62,0,0,1-1.623-1.62v-25.4a1.62,1.62,0,0,1,1.623-1.62h13.174a1.62,1.62,0,0,1,1.62,1.62v25.412A1.62,1.62,0,0,1,1193.946,680.078Z" transform="translate(-262.076 -482.896)"/></g></svg>