<svg xmlns="http://www.w3.org/2000/svg" width="220.2" height="220.143" viewBox="0 0 220.2 220.143"><defs><style>.a{fill:#8c6256;}.b{fill:#5b4841;}.c{fill:#513c36;}.d{fill:#def4f9;}.e{fill:#e9fcff;}.f{fill:#cae3ea;}.g{fill:#9b6d75;}.h{fill:#82515c;}.i{fill:#ffc397;}.j{fill:#ef8f6f;}.k{fill:#f4e4bd;}.l{fill:#685248;}.m{fill:#4c3d34;}.n{fill:#d8b38b;}.o{fill:#876555;}.p{fill:#937a70;}.q{fill:#b27f8a;}.r{fill:#a0513c;opacity:0.5;}.s{fill:#6b3b2e;}.t{fill:#592d23;}.u{fill:#f7a27c;}.v{fill:#543c32;}.w{fill:#4c241e;}.x{fill:#fff2dc;}</style></defs><g transform="translate(7789 -19835.698)"><rect class="a" width="1.57" height="113.27" transform="translate(-7646.67 19941.859)"/><path class="a" d="M130.19,641.11h-1.31L115.3,757.52h1.31Z" transform="translate(-7789.01 19298)"/><path class="a" d="M159.2,641.11h1.28L173.7,757.52h-1.28Z" transform="translate(-7789.01 19298)"/><path class="b" d="M68.66,657.71h141.1L220.21,539.6,60.3,541.17Z" transform="translate(-7789.01 19298)"/><path class="c" d="M165.65,589.59c-46.7-8.26-82.18-28.45-79.23-45.11A9,9,0,0,1,88,540.9l-27.72.27,8.36,116.54h141.1l5.75-65C201.09,593.73,183.87,592.81,165.65,589.59Z" transform="translate(-7789.01 19298)"/><path class="d" d="M71,655.75H207.49L217.6,541.56,62.91,543.08Z" transform="translate(-7789.01 19298)"/><path class="e" d="M209.44,550.89l.19,80.68,7.97-90.01L62.91,543.08l.02.3Z" transform="translate(-7789.01 19298)"/><path class="f" d="M132.43,633.29c-33.94-17-59-43.61-68-69.07L71,655.74H201.81C181.06,653.64,156.34,645.26,132.43,633.29Z" transform="translate(-7789.01 19298)"/><rect class="c" width="45.86" height="1.96" transform="translate(-7667.44 19970.471)"/><path class="g" d="M74.52,617.29c-3.84,2.27-29.5-19.54-30.87-24.61s15-5.65,17.82-3.69C63.92,590.7,83.78,611.84,74.52,617.29Z" transform="translate(-7789.01 19298)"/><path class="h" d="M47.73,589.6a2.16,2.16,0,0,1-.06-.75c-2.68.75-4.52,2-4,3.83,1.37,5.07,26.42,27.56,30.67,24.88a5.72,5.72,0,0,0,2.49-3.37C69.8,612.22,49,594.15,47.73,589.6Z" transform="translate(-7789.01 19298)"/><path class="i" d="M94,595c1.11-1.6,3.8-6.78,5.72-5.84,1.72.83,2.87,4-4.45,7.18Z" transform="translate(-7789.01 19298)"/><path class="j" d="M94.3,595.41c1.12-1.6,3.8-6.78,5.73-5.85,1.72.84,2.86,4-4.46,7.19Z" transform="translate(-7789.01 19298)"/><path class="i" d="M101.63,590.65c-.39-.23-.92.38-1.4,1.15s-.75,1.4-.36,1.63,1.1-.2,1.58-1S102,590.88,101.63,590.65Z" transform="translate(-7789.01 19298)"/><path class="i" d="M103.75,585.28c-.56-.24-2,.84-3.45,2.15s-2.39,2.33-1.83,2.57,2.2-.62,3.65-1.93S104.31,585.51,103.75,585.28Z" transform="translate(-7789.01 19298)"/><path class="i" d="M97.59,590.54c-.47-.27-1.16.45-1.81,1.35s-1,1.65-.52,1.92,1.38-.23,2-1.14S98.07,590.82,97.59,590.54Z" transform="translate(-7789.01 19298)"/><path class="i" d="M97.07,590.61c.44-.4,1.2.2,1.92,1s1.14,1.51.69,1.93-1.4.08-2.12-.73S96.62,591,97.07,590.61Z" transform="translate(-7789.01 19298)"/><path class="i" d="M102.38,591.38c-.33-.2-.77.33-1.17,1s-.62,1.21-.29,1.41.91-.17,1.32-.83S102.7,591.59,102.38,591.38Z" transform="translate(-7789.01 19298)"/><path class="i" d="M98.84,589.16c-.32.33.61,1,1.58,1.84s1.77,1.48,2.09,1.14-.22-1.33-1.19-2.22S99.16,588.83,98.84,589.16Z" transform="translate(-7789.01 19298)"/><path class="k" d="M94.57,600.87s2.64-2.47,2.59-3-2.35-4-3.43-4.08-3.47,2.33-3.47,2.33Z" transform="translate(-7789.01 19298)"/><path class="g" d="M96.08,601.42c1-1.69-4.22-7.44-6.45-7.37-2.06,2.38-14.28,9-17.88,16-1.29,2.52-1.29,5.74,0,6.79C76.6,620.81,91.6,606,96.08,601.42Z" transform="translate(-7789.01 19298)"/><path class="l" d="M77.86,757.18c-3.1-10.58-12.09-43.9-12.21-53.51-.2-16.16-9.24-53-8.09-65.85,0,0-28.86-6.12-31.31,2.82-4,14.58,1.1,51.13-1.45,61.62-.8,3.29-2.75,13.06-2.56,16.82a311.883,311.883,0,0,0,4.57,38.1h3.3s-2.25-37.28,2.31-50c3-8.47,8-39.68,10.84-39.68s11.1,27.92,14.29,35.21c.67,1.56-.46,9.21,2.33,16.35,3.89,9.95,6.95,22.07,14.8,38.1Z" transform="translate(-7789.01 19298)"/><path class="m" d="M59.27,658.48c-1.75.5-3.41-4.25-3.25-9.84l2.67-.83S59,656.89,59.27,658.48Z" transform="translate(-7789.01 19298)"/><path class="m" d="M24.24,719.33c-.19-3.76,1.76-13.53,2.56-16.82,2.55-10.49-.05-39,3.93-53.58,5.5.25,25.67,1.82,28.05-.54,1.33-10.17-14-12.42-8.59-11.8-8.73-1.16-22.29-2-23.94,4-4,14.58,1.1,51.13-1.45,61.62-.8,3.29-2.75,13.06-2.56,16.82a311.886,311.886,0,0,0,4.57,38.1h2a315.449,315.449,0,0,1-4.57-37.8Z" transform="translate(-7789.01 19298)"/><path class="m" d="M61.88,719.33c-2.79-7.14-.84-16.22-1.52-17.77-3.18-7.29-13.18-36.25-16-36.25-.46,0-.94.88-1.45,2.38a.6.6,0,0,1,.35-.17c2.83,0,11.1,27.92,14.29,35.21.67,1.56-.46,9.21,2.33,16.35,3.89,9.95,6.95,22.07,14.8,38.1h1.88C68.8,741.28,65.75,729.23,61.88,719.33Z" transform="translate(-7789.01 19298)"/><path class="j" d="M40.49,586.94l.83-15.87,9.76.12-.67,17.27S42.39,590.38,40.49,586.94Z" transform="translate(-7789.01 19298)"/><path class="k" d="M25.48,643.14c.79,2.94,31,6.78,32.33,2.93.62-1.86-.84-14.52-.25-27.87.63-14.26,2.36-28.58-2.2-32.08-2.38-1.84-6.25-3-10.45-3.3-8.58-.59-18.45,1.8-19.8,5.5-1,2.68,4.13,15.58,4.22,27.44C29.42,628.21,24.54,639.66,25.48,643.14Z" transform="translate(-7789.01 19298)"/><path class="n" d="M53.61,647.39c2.17-3.91,3.41-51.91-2.17-62.16l.92-.36s6.83,6.11,6.91,25.44-1,35.83-1,35.83Z" transform="translate(-7789.01 19298)"/><path class="n" d="M40,645.31a69.729,69.729,0,0,0,4.5-24.92c-.09-11.86-18.24-31.22-17.25-33.91a3.26,3.26,0,0,1,.38-.71,5.38,5.38,0,0,0-2.55,2.55c-1,2.68,4.13,15.58,4.22,27.44.09,12.45-4.79,23.9-3.85,27.38.79,2.94,30.88,7.5,32.33,2.93C51.61,648,41,646,40,645.31Z" transform="translate(-7789.01 19298)"/><path class="n" d="M46.05,587.5l2.56-4.32L41.23,582l-1.06,1.43Z" transform="translate(-7789.01 19298)"/><path class="n" d="M51.11,586.68l-2.06-3.25,2.06.19,1.25,1Z" transform="translate(-7789.01 19298)"/><path class="n" d="M48.55,584.43c.33,10.35-2,43.77-3.32,49.2l2.88,5.18,3.2-5.18s0-40.88-2-48.9Z" transform="translate(-7789.01 19298)"/><path class="g" d="M23.34,661c2.42,4.4,22-16.32,21.75-42.6s-2-34.41-5.5-35.63c0,0-13.93.61-16.13,5.13s4.65,28.2,4.4,33.86C27.49,630.18,20,655,23.34,661Z" transform="translate(-7789.01 19298)"/><path class="h" d="M32.36,622.18c-.08-5.53-2.33-35.7-7.25-30.12-3.33,3.77,3,24,2.75,29.69C27.49,630.18,20,655,23.34,661c.41.74,1.31.75,2.52.16C25.7,652,32.46,629.66,32.36,622.18Z" transform="translate(-7789.01 19298)"/><path class="g" d="M59.53,657c-4,3.35.6-63.47-8.32-72.88,0,0,9.78,2.39,11.82,6.82.7,1.52-1.87,15.37-2.55,30.14C59.71,637.52,61.53,655.31,59.53,657Z" transform="translate(-7789.01 19298)"/><path class="g" d="M.17,615.45c-2-4,21.09-28.42,26.22-29.52S33,601,30.24,603,5.12,625,.17,615.45Z" transform="translate(-7789.01 19298)"/><path class="h" d="M30,601.55c-2.43,1.78-19.27,16.76-27.88,15.9C9.35,621.21,27.55,605.79,30,604a9.32,9.32,0,0,0,1.88-4.05C31.84,599.41,30.53,601.16,30,601.55Z" transform="translate(-7789.01 19298)"/><path class="k" d="M25.77,757.84h7.84s-3.57-5.27-5-3.86a26.5,26.5,0,0,0-2.84,3.86Z" transform="translate(-7789.01 19298)"/><path class="k" d="M73.77,757.84H85.61s-9-5.36-10.34-4A7,7,0,0,0,73.77,757.84Z" transform="translate(-7789.01 19298)"/><path class="o" d="M47.14,583.52l2.01,1.96,1.34-1.41-.74-1.83-1.68-.25Z" transform="translate(-7789.01 19298)"/><path class="k" d="M46.19,585.77l2.86-3.69-8.4-1.73-1.54,2.29Z" transform="translate(-7789.01 19298)"/><path class="k" d="M51.07,585.1l-2.13-3.04,2.38.44.79,1.73Z" transform="translate(-7789.01 19298)"/><path class="o" d="M48.61,584.56c.8,10.3-.1,43.44-1.15,48.85l3.11,5.15,3-5.15s-1.8-40.7-4.18-48.68Z" transform="translate(-7789.01 19298)"/><path class="p" d="M49.88,648.78l-3.05-.1-.25,1.92,3.05.1Z" transform="translate(-7789.01 19298)"/><path class="m" d="M38.11,663.73c2,.5,7.83,2.66,13.08-.25,0,0-3.94,4.51-7.93,4a6.2,6.2,0,0,1-5.15-3.75Z" transform="translate(-7789.01 19298)"/><path class="h" d="M70.38,610.85c-.74,2.24.15,5.5,1.23,6.38,4.85,3.95,20-11.22,24.47-15.81.3-.53.12-1.77-1-3C89.61,603.52,76.34,614.85,70.38,610.85Z" transform="translate(-7789.01 19298)"/><path class="h" d="M74.07,609a27,27,0,0,1,6.35-8,47.094,47.094,0,0,0-5.56,4.68A42.326,42.326,0,0,0,72,601.15C72.83,603.38,74.83,606.49,74.07,609Z" transform="translate(-7789.01 19298)"/><path class="h" d="M31,607.74c.25-1.93,1.13-7.06.63-7.43s-1.38,3-1.38,3Z" transform="translate(-7789.01 19298)"/><path class="h" d="M29.07,609c1.13-1.33,4.33-4.76,4-5.2s-2.69,1.73-2.69,1.73Z" transform="translate(-7789.01 19298)"/><path class="h" d="M28.69,632.56l6.92.67a5,5,0,0,1-4.92,2.91C27.19,635.81,28.69,632.56,28.69,632.56Z" transform="translate(-7789.01 19298)"/><path class="q" d="M28.86,632.14l6.92.67a5,5,0,0,1-4.92,2.91C27.36,635.39,28.86,632.14,28.86,632.14Z" transform="translate(-7789.01 19298)"/><path class="h" d="M11.51,616.18c-.71-.69-1.65-3.12-1.21-3.47s1.93,3,1.93,3Z" transform="translate(-7789.01 19298)"/><path class="h" d="M74.8,606.46s-2,1-2.16.47,1.78-1.44,1.78-1.44Z" transform="translate(-7789.01 19298)"/><path class="r" d="M59.23,587.29a33.151,33.151,0,0,0-7.08-2.93l-.14-.05.1-.08-.79-1.74-.67-.12.41-10.66c-.24-.18-.48-.36-.72-.52l-9-.12-.49,9.32h-.18l-1.54,2.29.28.13a52.574,52.574,0,0,0-9.5,1.42c2.54,1.86,7.9,3.54,14.22,4.25C50.67,589.17,56.44,588.66,59.23,587.29Z" transform="translate(-7789.01 19298)"/><path class="s" d="M48.53,541.46c-1.81-.54-2.39-.45-2.47-.15a7,7,0,0,0-4-2.9c-2-.41-2,1-1.82,1.9-.42-1.07-1.61-2.95-4.81-2.56-2.1.26-2.47,1.32-2.29,2.36-.78-.82-2.08-1.23-4.24.22-2.6,1.74-1.47,3.78,0,5.19a5,5,0,0,0-2.47,1.07c-3.91,2.78.4,5.19.4,5.19-4.51,4.88,1.71,5.61,1.71,5.61-1.8,3.43,2.81,5.85,2.81,5.85-1.5,4.46,4.82,5.2,4.82,5.2.1,2.4,2.61,3.44,6.13,3.22l10.54-22.44C53.15,546.28,52.85,542.76,48.53,541.46Z" transform="translate(-7789.01 19298)"/><path class="t" d="M40.19,550.14c-6.69,0-11.81,0-13.53-3.69l-.22.14c-3.91,2.78.4,5.19.4,5.19-4.51,4.88,1.71,5.61,1.71,5.61-1.8,3.43,2.81,5.85,2.81,5.85-1.5,4.46,4.82,5.2,4.82,5.2.1,2.4,2.61,3.44,6.13,3.22l10.54-22.44v-.34C50.27,551.24,45.29,550.14,40.19,550.14Z" transform="translate(-7789.01 19298)"/><path class="i" d="M41.06,565.16c-4,2.6-10.14-2-7.7-6.24S43.51,563.56,41.06,565.16Z" transform="translate(-7789.01 19298)"/><path class="j" d="M39.54,564.11c-2.44,1.59-6.18-1.19-4.69-3.8S41,563.14,39.54,564.11Z" transform="translate(-7789.01 19298)"/><path class="i" d="M40,564.08c-1.43.92-3.6-.69-2.74-2.21S40.85,563.52,40,564.08Z" transform="translate(-7789.01 19298)"/><path class="i" d="M39,556s0,14.88,3.33,17,10.24,4.83,13.42,4.46c1.83-5.62-.12-18,.48-20.54.3-1.23,1-2.16.63-3.17-2.2-6.53-10.15-10.69-15.53-9.54S38.62,550.72,39,556Z" transform="translate(-7789.01 19298)"/><path class="u" d="M56.21,557c.26-1.07.8-1.91.71-2.77a5,5,0,0,0-1.81-.13c-1.08.09-1.83,1.61-1.83,5.92s2.12,12.16,3.21,12.31C56.75,566.31,55.76,558.85,56.21,557Z" transform="translate(-7789.01 19298)"/><path class="v" d="M55.81,558.37c.07-1-.28-1.74-.78-1.78s-1,.7-1,1.64.28,1.74.78,1.78S55.74,559.31,55.81,558.37Z" transform="translate(-7789.01 19298)"/><path class="s" d="M41.11,564.89c.2,1.43,2.83,1.67,3.58-.66S42,543.64,37.86,545s.87,14.45.87,14.45a13.45,13.45,0,0,1,2.38,5.44Z" transform="translate(-7789.01 19298)"/><path class="t" d="M35.61,550.18a32.06,32.06,0,0,0,2.75,9,13.68,13.68,0,0,1,2.75,5.71c.2,1.43,2.83,1.67,3.58-.66.5-1.55-.83-10.06-3-15.26a20.492,20.492,0,0,1-6.08,1.21Z" transform="translate(-7789.01 19298)"/><path class="i" d="M53.17,567.48s4.16.24,4.31-.34-4.76-11.71-4.76-11.71S52.27,566.56,53.17,567.48Z" transform="translate(-7789.01 19298)"/><path class="s" d="M46.17,543.9c0-1.33-1.71-2.41-3.81-2.41s-3.81,1.08-3.81,2.41,1.7,2.41,3.81,2.41S46.17,545.23,46.17,543.9Z" transform="translate(-7789.01 19298)"/><path class="s" d="M57.61,554.56c-.1.53-4.16.29-3.69-1.07S57.8,553.56,57.61,554.56Z" transform="translate(-7789.01 19298)"/><path class="h" d="M42.6,629.62c0-.25-.59-.53-1.38-.62s-1.45,0-1.48.31.59.53,1.38.62S42.57,629.88,42.6,629.62Z" transform="translate(-7789.01 19298)"/><path class="h" d="M43.54,621.69c0-.26-.59-.54-1.38-.63s-1.45.05-1.48.31.59.53,1.38.62S43.51,621.94,43.54,621.69Z" transform="translate(-7789.01 19298)"/><path class="n" d="M42,629.56c0-.09-.37-.21-.84-.26s-.87,0-.88.07.37.21.84.26S42,629.65,42,629.56Z" transform="translate(-7789.01 19298)"/><path class="n" d="M43,621.65c0-.09-.37-.21-.84-.26s-.87,0-.88.07.37.21.84.26S43,621.74,43,621.65Z" transform="translate(-7789.01 19298)"/><path class="u" d="M51.59,554.29c-.29,1.16-1.19,4.35-3.73,3.64s-1.23-2.23-.52-3.06S51.59,554.29,51.59,554.29Z" transform="translate(-7789.01 19298)"/><path class="s" d="M47,555c.12.52,5.18.16,4.63-1.19S46.79,554,47,555Z" transform="translate(-7789.01 19298)"/><path class="w" d="M51.4,568.28l4.36.38s-1.16,5.21-3.3,4.09S51.4,568.28,51.4,568.28Z" transform="translate(-7789.01 19298)"/><path class="x" d="M51.73,568.73c.84-.05,2.09.29,3.42.41.2.43-.13,1.67-2.29,1.42a1.48,1.48,0,0,1-1.13-1.83Z" transform="translate(-7789.01 19298)"/><path class="v" d="M50,558.31c.08-1-.33-1.87-.9-1.92s-1.1.75-1.18,1.77.33,1.87.91,1.91S49.91,559.32,50,558.31Z" transform="translate(-7789.01 19298)"/><path class="j" d="M23.84,641.84c-.31.25-.83-.26-1.32-.91s-.77-1.2-.46-1.46,1,.07,1.46.72S24.16,641.58,23.84,641.84Z" transform="translate(-7789.01 19298)"/><path class="j" d="M23.21,642.52c-.32.26-.83-.25-1.32-.91s-.77-1.2-.46-1.46,1,.07,1.46.73S23.52,642.27,23.21,642.52Z" transform="translate(-7789.01 19298)"/><path class="i" d="M25.13,640.65c.32.28-.59.66-1.11,1.24s-1,.92-1.3.64-.16-1,.35-1.55a1.89,1.89,0,0,1,2.06-.33Z" transform="translate(-7789.01 19298)"/><path class="i" d="M20.8,635.18c1.14.77,5.76,3.46,5.1,4.82-.33.69-1.06,1.86-2.4,1.08-1.05-.61-2.65-2.74-3.64-5Z" transform="translate(-7789.01 19298)"/><path class="k" d="M16.3,636s2.48,2.64,3,2.58,4-2.37,4.07-3.45S21,631.7,21,631.7Z" transform="translate(-7789.01 19298)"/><path class="g" d="M15,637.46c2,1.1,8-3.72,7.7-6.06-.19-1.09-8.23-14.74-15-18.7-2.45-1.43-5.76-1.67-6.78-.36C-3.72,618.23,10.67,632.74,15,637.46Z" transform="translate(-7789.01 19298)"/><path class="h" d="M19.77,626.18a48.1,48.1,0,0,0-6-8.56,12.34,12.34,0,0,0-4.14-3.25C8.39,613.89,16.33,621.8,19.77,626.18Z" transform="translate(-7789.01 19298)"/><path class="h" d="M5.9,627.08c3.34,4.31,7.21,8.3,9.13,10.38a2.18,2.18,0,0,0,1.62,0C14.17,635.1,9.74,631.23,5.9,627.08Z" transform="translate(-7789.01 19298)"/><path class="h" d="M12.15,616c-.74.24-2.77,0-2.84-.45s2.79-.22,2.79-.22Z" transform="translate(-7789.01 19298)"/></g></svg>