<svg xmlns="http://www.w3.org/2000/svg" width="179.019" height="204.64" viewBox="0 0 179.019 204.64"><defs><style>.a{fill:#ef8f6f;}.b{fill:#f7a27c;}.c{fill:#ffc397;}.d{fill:#684032;}.e{fill:#f4e4bd;}.f{fill:#542b35;}.g{fill:#6d3e47;}.h{fill:#542a34;}.i{fill:#8e684f;}.j{fill:#70412a;}.k{fill:#513329;}.l{fill:#42271f;}.m{fill:#705e59;}.n{fill:#5b4540;}.o{fill:#a83b29;}.p{fill:#bc3f2e;}.q{fill:#a0513c;opacity:0.5;}.r{fill:#5e311f;}.s{fill:#b59468;}.t{fill:#e2c396;}.u{fill:#b2a594;}.v{fill:#5b2f39;}.w{fill:#44251c;}.x{fill:#663a2f;}.y{fill:#774b32;}.z{fill:#b58368;}.aa{fill:#6b5244;}.ab{fill:#5b362a;}.ac{fill:#fff3d4;}.ad{fill:#6d4326;}.ae{fill:#543018;}.af{fill:#ad7381;}.ag{fill:#8c505e;}.ah{fill:#89503e;}.ai{fill:#965136;}.aj{fill:#7a3925;}.ak{fill:#543c32;}.al{fill:#b27449;}.am{fill:#4f2119;}.an{fill:#ffefe3;}.ao{fill:#4c241e;}.ap{fill:#fff4eb;}</style></defs><g transform="translate(-890.001 -834.999)"><path class="a" d="M336.306,138.107c-.432.074-.735-.57-.919-1.323s-.257-1.332.175-1.415.919.478,1.167,1.231S336.738,138.033,336.306,138.107Z" transform="translate(703.105 806.311)"/><path class="a" d="M335.276,138.427c-.432.074-.735-.57-.919-1.323s-.248-1.341.184-1.415.919.478,1.167,1.231S335.708,138.354,335.276,138.427Z" transform="translate(703.188 806.285)"/><path class="b" d="M251.758,117.066c-1.837,0-4.933,2.958-5.76,1.378-.744-1.415-.1-4.52,5.466-2.885Z" transform="translate(710.384 807.957)"/><path class="b" d="M248.439,115.317c1.452,2.425-1.121,3.831-2.058,4.051s-2.572-1.36-2.581-2.278S247.879,114.389,248.439,115.317Z" transform="translate(710.542 807.961)"/><path class="b" d="M245.349,115.771c-1.47-.606-2.967-2.012-2.692-2.49s1.424.919,2.82,1.112,2.453.5,2.49,1.1S246.819,116.386,245.349,115.771Z" transform="translate(710.638 808.113)"/><path class="b" d="M242.518,117.467c-1.341.257-2.168.073-2.269-.3s.671-.487,2.012-.753,2.912-.919,3.013-.57S243.86,117.192,242.518,117.467Z" transform="translate(710.832 807.906)"/><path class="b" d="M243.358,119.239c-1.231.551-2.655.432-2.829.064s1.13-.57,2.361-1.13,2.067-.836,2.242-.478S244.58,118.679,243.358,119.239Z" transform="translate(710.81 807.76)"/><path class="b" d="M245.275,120.234c-1.259.5-2.131.469-2.3.1s.753-.524,2.021-1.02,2.15-.827,2.315-.459S246.534,119.738,245.275,120.234Z" transform="translate(710.61 807.664)"/><path class="c" d="M235.68,116.125c1.92.441,4.428,4.042,5.714,2.7,1.148-1.194,1.268-4.364-5.016-4.1Z" transform="translate(711.203 807.988)"/><path class="c" d="M239.722,115.2c-2.159,2.021.193,3.987,1.121,4.428s3.059-.707,3.307-1.6S240.539,114.436,239.722,115.2Z" transform="translate(710.946 807.961)"/><path class="c" d="M242.811,116.459c1.709-.248,3.675-1.259,3.491-1.782s-1.736.524-3.261.413c-1.663-.11-2.756-.1-2.912.487S241.112,116.707,242.811,116.459Z" transform="translate(710.842 808.004)"/><path class="c" d="M245.448,118.676c1.341.579,2.26.588,2.471.248s-.588-.634-1.938-1.213-2.811-1.617-3.022-1.268S244.1,118.1,245.448,118.676Z" transform="translate(710.612 807.855)"/><path class="c" d="M244.143,120.212c1.148.827,2.683,1.047,2.958.735s-1.047-.827-2.2-1.654-1.966-1.3-2.242-.992S242.967,119.385,244.143,120.212Z" transform="translate(710.64 807.707)"/><path class="c" d="M241.889,120.73c1.194.781,2.131.919,2.4.643s-.671-.689-1.837-1.47-2.058-1.314-2.324-1S240.686,119.949,241.889,120.73Z" transform="translate(710.845 807.656)"/><path class="c" d="M264.95,74.405c1.626-1.112,5.981-.505,5.87-2.352-.1-1.654-2.343-3.9-6.431.919Z" transform="translate(708.868 811.621)"/><path class="c" d="M267.05,70.928c0,2.949,3.059,2.563,4.015,2.177s1.553-2.756,1.066-3.509S267,69.8,267.05,70.928Z" transform="translate(708.651 811.68)"/><path class="c" d="M270.076,69.3c.983-1.415,1.562-3.537,1.056-3.767s-.79,1.626-1.9,2.673-1.929,1.92-1.626,2.462S269.1,70.729,270.076,69.3Z" transform="translate(708.611 811.99)"/><path class="c" d="M273.433,69.091c1.332-.6,1.966-1.259,1.837-1.644s-.864,0-2.2.6-3.105.919-2.986,1.36S272.092,69.688,273.433,69.091Z" transform="translate(708.404 811.848)"/><path class="c" d="M273.678,71.14c1.4-.285,2.6-1.259,2.554-1.672s-1.314.2-2.7.487-2.3.551-2.251.919S272.29,71.415,273.678,71.14Z" transform="translate(708.307 811.68)"/><path class="c" d="M272.524,73.148c1.4-.349,2.159-.919,2.1-1.323s-.919,0-2.352.367-2.352.616-2.306,1.029S271.137,73.5,272.524,73.148Z" transform="translate(708.414 811.492)"/><path class="d" d="M344.26,138.933l-3.068-4.713-6.082,2.269,5.319-.588.974,4.051Z" transform="translate(703.116 806.402)"/><path class="d" d="M333.575,142.293l-1.755-5.126,7.037-2.067-4.74,2.912,1.911,3.748Z" transform="translate(703.383 806.332)"/><path class="e" d="M253.25,113.19l-3.16.919s-.634,4.336,1.13,5.6l3.482-.469Z" transform="translate(710.04 808.113)"/><path class="c" d="M334.084,136.372c-.57-.092-.459-1.185-.156-2.389s.22-3.1.8-3.013,1.231,2.177.919,3.381S334.654,136.509,334.084,136.372Z" transform="translate(703.232 806.668)"/><path class="c" d="M338.1,137.821c.2.367-.919.294-1.672.542s-1.406.349-1.608,0,.266-.919,1.047-1.139a2.434,2.434,0,0,1,2.232.6Z" transform="translate(703.144 806.164)"/><path class="c" d="M336.109,130.9c.818,1.13,4.318,5.356,3.05,6.21a2.028,2.028,0,0,1-2.921-.147,10.675,10.675,0,0,1-1.608-5.7Z" transform="translate(703.155 806.672)"/><path class="e" d="M330.81,128.633l.873,3.188s4.318.717,5.622-1.011l-.4-3.5Z" transform="translate(703.465 806.965)"/><path class="e" d="M264.965,78.307l2.223-2.416s-1.6-4.281-3.73-5.411l-3.179,2.655Z" transform="translate(709.202 811.586)"/><path class="e" d="M234.35,118.731l2.995.7s2.673-3.546,2.563-5.953l-3.675-1.4Z" transform="translate(711.311 808.203)"/><path class="f" d="M283.61,64.777s4.593-3.675,11.943-2.141l-.616,3.142Z" transform="translate(707.305 812.254)"/><path class="g" d="M284.947,76.388c-2.361-10.3-8.737-9.187-10.491-2.995,0,0-1.709,22.774-3.482,26.531a.174.174,0,0,1-.046.119c-3.757,1.892-15.342,5.99-17.887,7.349-1.837.919-.156,9.958,2.3,9.646,4.538-.588,22.5-7.937,23.582-10.9a.917.917,0,0,0,.138-.129C281.961,102.965,285.516,78.85,284.947,76.388Z" transform="translate(709.854 811.734)"/><path class="h" d="M285.088,76.426c-.919-4.125-2.536-6.431-4.208-7.276,1.194,1.2-4.106,4.033-4.731,7.147-1.837,9.187,1.6,24.914-.579,27.909-1.837,2.554-16.775,11.355-21.322,11.943H254c.432.625.919.983,1.452.919,4.538-.588,22.5-7.937,23.582-10.9a.92.92,0,0,0,.138-.129C282.1,103,285.657,78.888,285.088,76.426Z" transform="translate(709.713 811.695)"/><path class="i" d="M214.965,67.521s17.547,12.237,22.213,16.793c3.234,3.16,2.214,9.9-.367,9.361-3.188-.661-26.77-12.861-28.3-14.855C202.085,70.351,209.288,64.9,214.965,67.521Z" transform="translate(713.618 811.881)"/><path class="j" d="M238.585,93.453c-3.326-.524-28.231-11.888-29.912-13.9a16.7,16.7,0,0,1-1.433-1.994,14.7,14.7,0,0,0,1.369,2.131c1.534,2.03,24.464,14.478,28.3,14.855a1.755,1.755,0,0,0,1.773-1.093A.377.377,0,0,1,238.585,93.453Z" transform="translate(713.516 811.012)"/><path class="i" d="M239.44,94c2.811,1.139,21.129-10.592,24.253-13.78,1.663-1.7-3.987-9.949-5.512-8.727-3.142,2.508-17,12.338-19.154,12.861C234.489,85.389,236.62,92.867,239.44,94Z" transform="translate(711.145 811.516)"/><path class="j" d="M236.8,92.241a5.007,5.007,0,0,0,2.462,2.471c3.564,1.148,21.377-10.693,24.464-13.835.386-.4.377-1.158.11-2.067C258.113,83.036,239.74,92.985,236.8,92.241Z" transform="translate(711.111 810.91)"/><path class="k" d="M219.8,231.768c-1.681-9.416-6.2-39.062-5.439-47.605.836-9.416.7-46.659-2.508-57.959,0,0-23.077-6.063-26.155,1.837-5.025,12.972-4.2,45.483-7.533,54.826-1.047,2.921-3.767,11.612-3.978,14.956a271.316,271.316,0,0,0,.211,33.9h2.931s1.773-33.164,7.111-44.464c3.555-7.533,12.136-35.782,14.7-35.782s6.063,25.319,8.158,31.8c.441,1.387-1.341,8.195.413,14.543,2.462,8.856,3.95,19.632,9.315,33.9Z" transform="translate(716.238 807.234)"/><path class="l" d="M214.406,184.162c.836-9.416.7-46.659-2.508-57.959,0,0-23.077-6.063-26.155,1.837-5.025,12.972-4.2,45.483-7.533,54.826-1.047,2.921-3.767,11.612-3.978,14.956-.432,6.881-.487,14.791-.367,21.414v-6.853c.257-21.405,4.8-14.809,9.187-52.318,1.084-9.26,3.335-16.352,6.275-16.848,10.951-1.837,15.066-8.415,19.292-8.415,3.022,0,6.32,6.431,4.024,47.771a248.244,248.244,0,0,0,3.215,33.182c1.075,6.091,2.177,10.914.533,10.914-10.528-36.177-5.815-37.555-7.827-47.376-2.085-10.105-4.226-30.481-6.789-30.481a30.425,30.425,0,0,0-3.372-.23s-2.517,2.995-11.713,28.938c-1.36,3.822-8.038,16.711-8.957,34.68-.588,11.511-.6,17.455-1.3,19.522h.919s1.773-33.164,7.111-44.464c3.555-7.533,12.136-35.782,14.7-35.782s6.063,25.319,8.158,31.8c.441,1.387-1.341,8.195.413,14.543,2.462,8.856,3.95,19.632,9.315,33.9h2.82C218.127,222.351,213.607,192.706,214.406,184.162Z" transform="translate(716.234 807.234)"/><path class="m" d="M285.484,231.8c1.148-9.38,1.231-39.925-.055-48.441-1.424-9.38-3.362-45.456-.781-56.71,0,0,23.132-6.045,26.742,1.837,5.9,12.926,1.672,45.309,5.631,54.606,1.24,2.921,4.529,11.566,4.942,14.9,1.562,12.521.919,28.479.707,33.77h-1.837s-3.812-33.072-9.922-44.289c-4.079-7.506-9.187-35.644-11.722-35.644s-5.31,24.2-7.055,30.656c-.367,1.378,2.462,10.629,1.047,16.949-1.966,8.819-1.461,18.116-6.063,32.328Z" transform="translate(707.323 807.199)"/><path class="n" d="M285.2,135.85l-1.837.689c0,11.713,0,19.476.616,29.82C284.536,162.694,284.205,140.517,285.2,135.85Z" transform="translate(707.325 806.27)"/><path class="n" d="M292.4,184.855c1.6-5.916,4.033-26.641,6.431-30.151-.3-1.727-1.1-1.644-1.608-1.644-2.563,0-5.512,22.884-7.239,29.342-.377,1.378,2.453,10.629,1.047,16.949-1.9,8.489-.165,21.175-4.125,34.781h.505c4.593-14.212,4.1-23.509,6.063-32.328C294.866,195.484,292.036,186.233,292.4,184.855Z" transform="translate(707.036 804.871)"/><path class="n" d="M324.057,198.175c-.413-3.335-3.675-11.943-4.942-14.9-3.96-9.3.266-41.68-5.632-54.606A5.42,5.42,0,0,0,311,126.16s-1.9,3.675-1.892,3.675c5.889,12.926,3.592,41.671,7.551,50.977,1.24,2.912,4.538,11.566,4.952,14.9a335.709,335.709,0,0,1,2,36.214h1.148C325,226.644,325.618,210.7,324.057,198.175Z" transform="translate(705.23 807.059)"/><path class="n" d="M283.86,136.782s21.818,3.362,29.012,1.222l-.836-3.445-28.176-.919Z" transform="translate(707.284 806.449)"/><path class="n" d="M292.61,151.382c1.755,1.231,6.357,1.837,11.557-.992,0,0-1.984,3.675-5.429,4.134S292.61,151.382,292.61,151.382Z" transform="translate(706.572 805.088)"/><path class="e" d="M188.578,123.765c-.808,1.837,22.6,3.142,24.9-.423s1.47-12.338,2.756-17.574,7.184-26.981,3.133-32.218c-3.555-4.593-6.486-10.464-12.972-6.7-3.362,1.957-8.838,16.316-9.049,20.5S196.69,105.557,188.578,123.765Z" transform="translate(715.035 811.98)"/><path class="o" d="M210.616,128.172l-.836-3.987,2.14-3.215.616,3.831Z" transform="translate(713.309 807.48)"/><path class="p" d="M218.219,73.956c-.1,1.608,1.029,17.638-2.389,26.118l.257,3.05,2.866-6.7s1.479-17.124-.34-22.967Z" transform="translate(712.817 811.344)"/><path class="o" d="M218.614,80.549q-.221-1.553-.331-2.949c.119,5.512.147,16.334-2.453,22.783l.257,3.05,2.866-6.7s.312-3.564.469-7.983C219.183,86.346,218.99,83.314,218.614,80.549Z" transform="translate(712.817 811.008)"/><path class="q" d="M207.469,131.289s4.116,6.219,7.221,9.187a105.4,105.4,0,0,0-1.617-13.109,13.146,13.146,0,0,0,1.461-5.236l-4.924-6.1-19.88,8.057c-.055.129-.1.266-.156.4a5.4,5.4,0,0,0-3.1,2.921c-1.5,3.858-2.471,9.444-3.188,15.617C185.651,143.884,202.251,142.846,207.469,131.289Z" transform="translate(715.463 807.883)"/><path class="i" d="M219.129,136.353c-2.2-2.8-12.43-15.149-6.348-26.559,7.634-14.331,9-37.243,4.189-42.259s12.292,4.814,5.512,25.374C216.18,112.183,221.656,139.569,219.129,136.353Z" transform="translate(713.22 811.932)"/><path class="j" d="M219.44,72.082l1.571,1.8-.57-4.061-.459-.762Z" transform="translate(712.523 811.703)"/><path class="j" d="M224.245,88.646c-2.756,5.117-3.105,14.993-6.945,13.9-.074.671,2.389,2.9,2.352,3.564a78.085,78.085,0,0,0,.211,10.914c.138-7.276.873-15.333,3.169-22.333.753-2.287,1.589-4.86,1.415-6.431C224.374,88.379,224.318,88.508,224.245,88.646Z" transform="translate(712.698 810.141)"/><path class="j" d="M213.005,112.9c-.083.156-.478.7-.56.854-6.082,11.41,4.465,23.38,6.66,26.182,1.277,1.626.505-4.593.257-13.6C218.646,112.145,221.742,106.514,213.005,112.9Z" transform="translate(713.244 808.35)"/><path class="a" d="M210.53,64.55,213.7,47.94l8.893,3.877L217.6,70.787Z" transform="translate(713.248 813.42)"/><path class="a" d="M292.464,64.172,289.45,47.48,280.87,51.2l5.053,20.183Z" transform="translate(707.527 813.457)"/><path class="p" d="M216.42,71.664l2.3,2.931.634-2.738-.763-1.5-1.3-.34Z" transform="translate(712.769 811.625)"/><path class="i" d="M181.718,137.7c6.275.919,21.24-3.978,26.577-18.879s12.549-43.315.312-52.621c-4.1-3.123-9.912,1.837-12.76,11.088-2.609,8.47-3.528,20.036-4.253,23.619C189.554,110.955,175.416,136.76,181.718,137.7Z" transform="translate(715.722 812.012)"/><path class="j" d="M215.688,72.566l-1.654,2.03L209,65.263l2.223-.083S215.265,70.527,215.688,72.566Z" transform="translate(713.373 812.018)"/><path class="j" d="M207.767,121.054a30.647,30.647,0,0,1-17.2,17.289c6.789-2.177,15.682-7.928,19.292-18.107,3.234-9.04,6.431-22.8,6.265-34.5C215.411,97.977,211.332,112,207.767,121.054Z" transform="translate(714.872 810.346)"/><path class="j" d="M192.165,102.377c.707-3.868,2.232-16.077,4.851-25.245,1.369-4.759,3.463-8.461,5.769-10.712-2.7,1.764-5.3,5.641-6.936,10.96-2.609,8.47-3.528,20.036-4.253,23.619-1.681,8.268-11.483,27.119-11.465,34.129C183.208,125.628,190.823,109.763,192.165,102.377Z" transform="translate(715.72 811.918)"/><path class="j" d="M200.216,82.759c-.514,2.609,3.6,27.34,6.605,30.16l.147.11c.331.827,1.938,1.892,4.18,2.986,1-2.857,4.125-13.633,4.593-18.686-1.837-5.512-4.979-17.308-4.979-17.308C208.842,73.8,202.4,71.817,200.216,82.759Z" transform="translate(714.09 811.223)"/><path class="i" d="M210.089,75.325s3.978,22.5,6.137,26.063c2.425,4.024-5.411,8.636-7.561,6.835-3.215-2.7-9.187-26.393-8.856-28.892C201.159,68.839,207.7,69.363,210.089,75.325Z" transform="translate(714.121 811.539)"/><path class="r" d="M210.7,109.017c-2.756-1.948-8.185-16.968-10.252-24.317,1.562,7.625,5.742,22.517,8.268,24.63.689.579,1.966.5,3.3,0a2.049,2.049,0,0,1-1.314-.312Z" transform="translate(714.068 810.43)"/><path class="e" d="M214.086,73.49l3.73-3.757-7.5-6.072-1.47.937Z" transform="translate(713.385 812.141)"/><path class="e" d="M283.571,128.122c-.423,2.756,25.53,3.978,28.249-1.047S305.334,68.9,295.706,64.1s-16.316,3.555-16.949,5.852S285.886,113.268,283.571,128.122Z" transform="translate(707.702 812.225)"/><path class="s" d="M289.23,66.77l3.28,3.27,1.148-6.486-1.553-.064Z" transform="translate(706.848 812.156)"/><path class="t" d="M286.987,99.277c-.156-.3-5.8-31.235-5.8-31.235l2.526-2.683,3.831,33.146Z" transform="translate(707.501 812.004)"/><path class="s" d="M284.683,67.271l-1.957,2.683L282.69,67.2l1.993-2.177Z" transform="translate(707.379 812.031)"/><path class="s" d="M285.3,71.747l3.5-5.687,1.066.57Z" transform="translate(707.167 811.945)"/><path class="u" d="M295.479,137.532l-3.289-.312v1.534l3.289.3Z" transform="translate(706.606 806.16)"/><path class="q" d="M289.789,127.635s5.439,26.531,24.8,18.695a70.426,70.426,0,0,0-2.177-15.617,24.806,24.806,0,0,0,.147-5.944l-.184-1.249-23.656-7.689-4.474,5.117c.1,2.333.138,4.529.083,6.513a115.753,115.753,0,0,0-.974,16.949C286.188,142.775,290.809,135.719,289.789,127.635Z" transform="translate(707.326 807.898)"/><path class="g" d="M313.165,141.287c-6.33.919-20.5-3.978-24.271-26.366s.616-44.151,5.365-52.456c1.911-.459,11.327,1.948,12.319,2.839,7.1,6.339,2.921,28.056,3.032,30.371C310.409,112.615,323.206,139.817,313.165,141.287Z" transform="translate(706.99 812.244)"/><path class="h" d="M291.89,68.965l1.148.919,1.984-7.5-.919-.147Z" transform="translate(706.631 812.258)"/><path class="v" d="M308.013,68.378c-5.126-1.994-5.053,18.621-4.667,26.715.533,11.41,12.678,29.655,14.928,40.229,0-9.389-6.624-27.009-7.2-39.227C310.971,93.788,316.887,71.823,308.013,68.378Z" transform="translate(705.712 811.77)"/><path class="g" d="M281.938,138.1c1.837,2.416,8.783-13.183,6.275-30.546s-6.275-39.962-4.814-43.1c0,0-7.111,5.65-6.9,9s2.839,21.267,4.593,30.757C283.188,115.482,281.3,137.264,281.938,138.1Z" transform="translate(707.883 812.078)"/><path class="g" d="M326.7,94.023c-2.6-7.5-16.215-26.724-18.282-28.047-9.141-5.824-12.5,1.837-9.187,7.8,0,0,14.5,15.526,18.309,23.242a.445.445,0,0,0,.046.239c.671,2.379,7.873,23.1,9.426,26.182.992,1.975,8.746,2.067,8.387-.6C334.846,118.735,330.023,100.638,326.7,94.023Z" transform="translate(706.136 812.121)"/><path class="v" d="M319.4,97.637a.445.445,0,0,0-.046-.239c-3.684-8.149-13.725-17.142-18.658-21.258,2.986,3.27,15.5,18,16.683,22.2.671,2.37,8.268,22.967,9.839,26.09a3.325,3.325,0,0,0,2.333,1.24C327.351,120.512,320.038,99.9,319.4,97.637Z" transform="translate(705.915 811.125)"/><path class="w" d="M322.64,144.108s1.764,20.367,9.021,33.256l33.228-9.49S360.4,140.782,353.213,136.4Z" transform="translate(704.13 806.227)"/><path class="x" d="M332.915,176.9c-3.748-7.423-8.727-27.863-8.268-31.308,5.512-2.223,15.232,29.4,15.232,29.4Z" transform="translate(703.969 805.488)"/><path class="w" d="M336.595,176.77c-.386-4.75-3.6-20.064-6.275-25.19,0,0,7.423,14.239,8.112,24.731Z" transform="translate(703.505 804.992)"/><path class="e" d="M173.86,241.732h9.986s-5.9-3.932-7.919-2.839A3.61,3.61,0,0,0,173.86,241.732Z" transform="translate(716.23 797.906)"/><path class="e" d="M220.19,241.74h9.931s-5.9-3.812-7.919-2.756A3.307,3.307,0,0,0,220.19,241.74Z" transform="translate(712.462 797.898)"/><path class="e" d="M287.047,241.74H277.86s5.512-3.812,7.349-2.756A3.335,3.335,0,0,1,287.047,241.74Z" transform="translate(707.772 797.898)"/><path class="e" d="M325.482,241.752H315.57s6.431-3.675,8.268-2.609A2.682,2.682,0,0,1,325.482,241.752Z" transform="translate(704.705 797.887)"/><path class="e" d="M220.4,72.957l-1.874-2.83.919-2.067.57.8Z" transform="translate(712.597 811.785)"/><path class="i" d="M209.667,110.869c1.2,2.857,18.006,8.681,22.333,8.847,2.333.092,5.861-8.6,4.061-9.4-2.811-1.231-18.686-5.393-20.541-6.66C211.624,100.984,208.454,108.012,209.667,110.869Z" transform="translate(713.339 808.938)"/><path class="r" d="M209.524,108.349a.6.6,0,0,1,0-.119c-.542.919-.542,1.617,0,3.105,1.13,2.885,18.125,8.636,22.452,8.8a2.076,2.076,0,0,0,1.424-.8C227.126,117.94,210.617,110.931,209.524,108.349Z" transform="translate(713.363 808.516)"/><path class="y" d="M193.118,118.06l9.738,3.326s-2.269,2.986-3.868,2.986S192.08,122.883,193.118,118.06Z" transform="translate(714.675 807.719)"/><path class="z" d="M193.118,116.56l9.738,3.326s-2.269,2.986-3.868,2.986S192.08,121.383,193.118,116.56Z" transform="translate(714.675 807.84)"/><path class="aa" d="M211.067,131.53l-2.976.294-.22,1.745,2.967-.294Z" transform="translate(713.464 806.621)"/><path class="a" d="M284,64.236a15.317,15.317,0,0,0,1.185,7.166s3.785-6.605,7.12-8.672C292.311,62.729,286.385,59.891,284,64.236Z" transform="translate(707.276 812.293)"/><path class="s" d="M285.231,71.651c-.827-1.259-1.139-2.444-1.451-5.319l.689-.652a15.855,15.855,0,0,0,.762,5.971Z" transform="translate(707.291 811.977)"/><path class="d" d="M333.823,161.167a54.374,54.374,0,0,1,3.28,14.644l27.79-7.937S360.4,140.782,353.216,136.4c-12.154,2.931-19.687,4.667-30.546,7.7C325.6,144.3,330.4,151.54,333.823,161.167Z" transform="translate(704.128 806.227)"/><path class="ab" d="M349.711,154.571c-8.268,0-15.718-1.562-21-4.061a59.216,59.216,0,0,1,5.6,11.8,54.376,54.376,0,0,1,3.28,14.644l27.79-7.937A153.625,153.625,0,0,0,361.8,153.4a59.338,59.338,0,0,1-12.09,1.167Z" transform="translate(703.636 805.078)"/><path class="ac" d="M282.11,68.663l2.177-3.105-.459-1.378-.919.634Z" transform="translate(707.427 812.098)"/><path class="ac" d="M289.11,65.679l3.445,3.39,1.892-6.9-1.782-.8Z" transform="translate(706.857 812.328)"/><path class="j" d="M194.819,92.79c-.064.772-1.029,13.955.469,16.683,0,0-2.49-2.333-2.517-4.327S194.819,92.79,194.819,92.79Z" transform="translate(714.692 809.773)"/><path class="l" d="M198.36,148.47c1.837,1,6.964,3.445,10.179,1.534,0,0-2.857,4.226-6.89,3.445C198.893,152.916,198.36,148.47,198.36,148.47Z" transform="translate(714.238 805.244)"/><path class="j" d="M239.382,85.452a3.261,3.261,0,0,0-1.608,2.407,3.8,3.8,0,0,1,.836-3.179Z" transform="translate(711.038 810.434)"/><path class="j" d="M238.249,84.55a2.986,2.986,0,0,1-2.389.469s1.892,1.837,3.225.3Z" transform="translate(711.188 810.443)"/><path class="q" d="M227.505,75.138c-2.453-1.837-4.961-3.675-7.092-5.181a20.472,20.472,0,0,0-1.286-1.948l-.248-.413v-.367l-.57-.8-.1.22L221.791,53a21,21,0,0,0-1.654-2.039L213.266,48h-.074l-2.848,14.7-.413-.34-1.47.919.312.533H208.6l.046.073a5.365,5.365,0,0,0-3.9.983h0c-.23.147-.45.312-.68.487C210.684,65.969,215.434,82.579,227.505,75.138Z" transform="translate(713.773 813.416)"/><path class="ad" d="M212.3,51.582s-7.257-9.563-7.717-13.183-.11-6.431,2.278-9.26,9.113-4.474,10.7-4.75c6.78-1.176,7.469,6.752,7.469,6.752Z" transform="translate(713.746 815.344)"/><path class="ae" d="M216.132,33.566a17.664,17.664,0,0,1-10.105-2.756c-1.626,2.48-1.837,4.988-1.442,8.13.487,3.647,7.717,13.174,7.717,13.174l8.966-19.182a22.3,22.3,0,0,1-5.135.634Z" transform="translate(713.746 814.813)"/><path class="c" d="M210.84,36.007s1.047,10.923,2.186,16.334c.873,4.189,7.928,9,12.384,9.582,2.3-4.7,3.362-11.373,2.986-18.327-.055-.919,1.617-2.508,1.507-3.427-.79-6.679-4.961-12.246-9.591-12.613C213.89,27.041,211.648,30.4,210.84,36.007Z" transform="translate(713.223 815.082)"/><path class="b" d="M229.775,44.658c-.055-.919,1.617-2.508,1.507-3.427a2.756,2.756,0,0,0-3.482.423c-.634.763-.56,2.83-.56,4.419,0,3.61-.2,8.939,1.755,10.105a45.722,45.722,0,0,0,.781-11.52Z" transform="translate(711.89 814)"/><path class="ad" d="M213.73,49.214l2.2-.312s2.039-18.282.468-20.009-6.771,2.4-6.826,2.756c-.707,4.391,1.571,12.319,1.571,12.319Z" transform="translate(713.336 815.004)"/><path class="ae" d="M209.089,32.43c-1.02,3.932,1.608,11.8,1.608,11.8l2.986,5.31,2.2-.312s1.029-9.288,1.056-15.25A26.844,26.844,0,0,1,209.089,32.43Z" transform="translate(713.384 814.682)"/><path class="c" d="M208.76,46.618c.781-1.654,4.318-1.415,5.181,3.372C214.318,52.075,205.636,53.168,208.76,46.618Z" transform="translate(713.447 813.604)"/><path class="a" d="M209.539,47.415c.533-1.121,2.921-.919,3.509,2.278C213.3,51.108,207.426,51.852,209.539,47.415Z" transform="translate(713.366 813.514)"/><path class="c" d="M211.648,49.29c.294-.616,1.608-.524,1.929,1.259C213.724,51.329,210.481,51.752,211.648,49.29Z" transform="translate(713.178 813.34)"/><path class="v" d="M292.214,116.446c-.129-.808-.7-1.387-1.277-1.277s-.919.854-.808,1.672.707,1.387,1.277,1.277A1.378,1.378,0,0,0,292.214,116.446Z" transform="translate(706.776 807.953)"/><path class="v" d="M290.714,107.636c-.129-.808-.7-1.387-1.277-1.277s-.919.854-.808,1.672.707,1.387,1.277,1.277A1.369,1.369,0,0,0,290.714,107.636Z" transform="translate(706.898 808.67)"/><path class="af" d="M291.593,116.034c-.11-.689-.588-1.167-1.075-1.075s-.79.717-.68,1.406.588,1.167,1.075,1.075S291.7,116.714,291.593,116.034Z" transform="translate(706.8 807.971)"/><path class="v" d="M257.515,116.488a1.112,1.112,0,0,0-1.167-1.038,1.176,1.176,0,0,0-.772,1.4,1.112,1.112,0,0,0,1.167,1.038A1.176,1.176,0,0,0,257.515,116.488Z" transform="translate(709.587 807.93)"/><path class="af" d="M256.943,116.149a.919.919,0,0,0-.974-.919.983.983,0,0,0-.652,1.176.919.919,0,0,0,.983.864.965.965,0,0,0,.643-1.121Z" transform="translate(709.608 807.947)"/><path class="v" d="M260.655,115.438a1.112,1.112,0,0,0-1.167-1.038,1.176,1.176,0,0,0-.772,1.4,1.112,1.112,0,0,0,1.167,1.038,1.176,1.176,0,0,0,.772-1.4Z" transform="translate(709.332 808.016)"/><path class="af" d="M260.083,115.1a.919.919,0,0,0-.974-.919.983.983,0,0,0-.652,1.176.919.919,0,0,0,.983.864A.974.974,0,0,0,260.083,115.1Z" transform="translate(709.353 808.033)"/><path class="v" d="M331.989,121.516a1.1,1.1,0,0,0,1.066-1.139,1.148,1.148,0,0,0-1.369-.8,1.1,1.1,0,0,0-1.066,1.13A1.148,1.148,0,0,0,331.989,121.516Z" transform="translate(703.481 807.598)"/><path class="af" d="M332.378,120.956a.83.83,0,1,0-1.148-.671.974.974,0,0,0,1.148.671Z" transform="translate(703.431 807.613)"/><path class="v" d="M332.969,124.676a1.1,1.1,0,0,0,1.066-1.139,1.157,1.157,0,0,0-1.378-.8,1.084,1.084,0,0,0-1.056,1.158,1.148,1.148,0,0,0,1.369.781Z" transform="translate(703.402 807.34)"/><path class="af" d="M333.348,124.117a.919.919,0,0,0,.919-.919.965.965,0,0,0-1.158-.671.819.819,0,1,0,.239,1.589Z" transform="translate(703.354 807.355)"/><path class="af" d="M290.123,107.2c-.11-.68-.6-1.167-1.075-1.075a1.163,1.163,0,0,0-.68,1.406c.11.689.588,1.167,1.075,1.075S290.233,107.893,290.123,107.2Z" transform="translate(706.919 808.688)"/><path class="v" d="M303.819,86.31c-.3,2.214-2.3,11.86-.836,18.144,0,0,.68-7.506,3.362-7.891Z" transform="translate(705.772 810.299)"/><path class="v" d="M304.36,117.418l7.919-1.608s.119,3.785-2.637,4.474S304.36,117.418,304.36,117.418Z" transform="translate(705.617 807.9)"/><path class="ag" d="M303.77,117l7.928-1.608s.11,3.794-2.646,4.483S303.77,117,303.77,117Z" transform="translate(705.665 807.934)"/><path class="v" d="M303.811,79.544s-3.335-.992-3.372-.5,3.987,2.067,3.987,2.067Z" transform="translate(705.936 810.902)"/><path class="v" d="M318.28,95.47c.689.772,4.593,4.823,5.586,5.788A32.027,32.027,0,0,1,319.5,98.8,13.081,13.081,0,0,1,318.28,95.47Z" transform="translate(704.485 809.555)"/><path class="v" d="M272.58,102.713l1.975,1.139-1.543-2.352Z" transform="translate(708.201 809.063)"/><path class="ah" d="M338.269,174.888c-.175-3.822-1.773-8.415-3.757-14-2.986-8.369-7-14.928-9.922-16.637l-1.92.487c2.931.22,7.726,7.441,11.153,17.069a54.375,54.375,0,0,1,3.28,14.644l27.79-7.937a2.917,2.917,0,0,0-.119-.68Z" transform="translate(704.128 805.588)"/><path class="q" d="M292.465,69.614a37.455,37.455,0,0,1,9.508-6.954,35.17,35.17,0,0,0-8.13-1.488h0l-.377-.055v-.083l-1.736-.79-.2.248L289.194,47.52h-.211l-3.555,1.543a19.4,19.4,0,0,0-4.373,3.886l2.5,9.986h0l-.064-.193-.919.634-.1.505a26.154,26.154,0,0,0-5.089,5.677C280.972,72.416,287.816,74.455,292.465,69.614Z" transform="translate(707.811 813.453)"/><path class="ai" d="M288.663,50.163s3.105-5.411,3.914-6.559,4.2-7.349,3.032-8.268c0,0,3.454-8.13-.726-7.873,0,0-2.379-7.074-6.624-5.668,0,0-3.353-4.354-6.945-1.681,0,0-4.125-1.837-6.55,1.479s-4.786,9.058.6,11.235S288.663,50.163,288.663,50.163Z" transform="translate(708.241 815.754)"/><path class="aj" d="M296.737,28.78c-2.269,3.794-7.441,6.431-13.477,6.431A19.081,19.081,0,0,1,276.49,34c5.337,3.169,12.531,16.913,12.531,16.913s3.105-5.411,3.914-6.559,4.2-7.349,3.032-8.268C295.966,36.139,298.345,30.525,296.737,28.78Z" transform="translate(707.884 814.979)"/><path class="c" d="M288.379,31.662s1.442,10.454,1.36,15.9c-.055,4.208-7.065,8.452-11.189,9.674-3.243-3.4-5.861-7.349-6.072-12.292,0-.358.827-3.28.634-3.767-.331-.808-2.159-1.213-2.2-1.782-.487-6.624,2.251-12.668,6.587-13.707C283.51,24.267,286.606,26.316,288.379,31.662Z" transform="translate(708.341 815.266)"/><path class="b" d="M272.238,38.868l-1.378.386a9.2,9.2,0,0,0,.055,1.231c0,.57,1.148,1.259,1.47,2.058a21.506,21.506,0,0,1,.092,3.491,16.187,16.187,0,0,0,2.829,8.268q.11-1.167.22-2.646C276.675,35.726,272.238,38.868,272.238,38.868Z" transform="translate(708.341 814.18)"/><path class="ak" d="M274.667,42.077c-.23-.827-.79-1.387-1.24-1.259s-.625.919-.386,1.727.79,1.387,1.24,1.259S274.905,42.9,274.667,42.077Z" transform="translate(708.172 814)"/><path class="ai" d="M273,47.564c.524,4.814,2.407,8.782,6.6,11.088,0,0,12.237-4.391,11.3-11.722,0,0-.919-7.423-1.259-12.136l-1.984-6.9s-1.36-1.571-1.047,11.823c.266,11.511-4.345,7.836-10.712,7A4.391,4.391,0,0,0,273,47.564Z" transform="translate(708.167 815.055)"/><path class="aj" d="M291.717,47.7s.322-8.6-1.029-12.457l-.753-.79c-.046.919-.119,1.975-.248,3.087-.919,8.332-5.227,18.557-9.407,21.607C281.585,58.648,292.609,54.578,291.717,47.7Z" transform="translate(707.575 814.518)"/><path class="c" d="M272.59,50.413c0,.524,4.235-.542,4.474-2.4s-.487-8.066-1.47-9.545C275.419,41.189,272.6,48.318,272.59,50.413Z" transform="translate(708.201 814.191)"/><path class="c" d="M289.931,42.632c.23-2.857,2.664-3.133,3.675-1.837s-.744,5.292-2.4,4.952S289.774,44.515,289.931,42.632Z" transform="translate(706.799 814.063)"/><path class="a" d="M290.595,42.95c.156-1.883,1.764-2.067,2.453-1.176s-.5,3.482-1.58,3.252S290.494,44.19,290.595,42.95Z" transform="translate(706.741 813.965)"/><path class="c" d="M290.417,44.279c.073-.919.818-.965,1.139-.551s-.23,1.617-.735,1.516S290.372,44.876,290.417,44.279Z" transform="translate(706.753 813.783)"/><path class="ad" d="M216.056,34.621l-.294,2.756s-8-2.434-8.9-5.347C206.86,32,208.5,34.051,216.056,34.621Z" transform="translate(713.546 814.715)"/><path class="ad" d="M231.438,42.331a6.5,6.5,0,0,1-3.215-.983c-.119-.119-.165-.864.175-.919a7.478,7.478,0,0,1,3.27.579.827.827,0,0,1-.23,1.323Z" transform="translate(711.816 814.031)"/><path class="ai" d="M270.91,40.53c-.652.22-1.451-1.608-.726-2.416s1.387-1.268,1.644-1.185a2.554,2.554,0,0,1,.919,2.3,4.125,4.125,0,0,1-1.837,1.3Z" transform="translate(708.42 814.316)"/><path class="w" d="M336.9,169.984l2.912,2.829,25.337-6.964.23.845-25.107,7.349-3.123-2.894Z" transform="translate(702.97 803.832)"/><path class="w" d="M352.92,170.784l.864,2.7,2.637-.744-.165-2.931Z" transform="translate(701.667 803.508)"/><path class="w" d="M353.084,170.7l-.974-2.471,1.378-.974,1.718,3.215Z" transform="translate(701.733 803.717)"/><path class="al" d="M352.86,167.183l1.259,3.84,1.323-.285.174-2.471-.864-1.837Z" transform="translate(701.672 803.785)"/><path class="ah" d="M353.106,137.089c6.541,3.987,10.849,26.8,11.566,30.849l.22-.064S360.4,140.782,353.216,136.4c-12.154,2.931-19.687,4.667-30.546,7.7a2.94,2.94,0,0,1,1.084.358C334,141.627,341.4,139.909,353.106,137.089Z" transform="translate(704.128 806.227)"/><path class="b" d="M225.674,40.956c.285.34-.4,2.471-1.2,2.526s-3.849,1.148-4.309.175.864-3.62,1.378-3.849S225.674,40.956,225.674,40.956Z" transform="translate(712.472 814.084)"/><path class="ad" d="M221.825,40.6a9.076,9.076,0,0,0,4.005.542c.184-.055.514-.726.147-.919a10.859,10.859,0,0,0-3.932-.919.753.753,0,0,0-.22,1.3Z" transform="translate(712.352 814.123)"/><path class="b" d="M279.771,39.9c1.139-.34-.459-3.27-1.663-3.151s-3.087,1.433-2.811,1.608S277.071,40.709,279.771,39.9Z" transform="translate(707.983 814.332)"/><path class="ai" d="M279.088,37.01c.919-.487.4-2.5-.919-2.37a10.656,10.656,0,0,0-3.675,1.1c-.423.514-.423,2.315.3,2.563C275.312,38.48,278.289,37.441,279.088,37.01Z" transform="translate(708.069 814.504)"/><path class="ak" d="M229.357,45.269c.184-.836,0-1.6-.487-1.7s-.974.487-1.167,1.323,0,1.6.487,1.7S229.164,46.1,229.357,45.269Z" transform="translate(711.857 813.777)"/><path class="ak" d="M223.446,43.845c.23-.827.055-1.6-.4-1.727s-1,.441-1.24,1.259-.055,1.6.4,1.727S223.207,44.709,223.446,43.845Z" transform="translate(712.339 813.895)"/><path class="c" d="M226.877,42.66s3.886,11.2,3.675,11.538-4.933-.57-5.053-.919S226.307,43.468,226.877,42.66Z" transform="translate(712.032 813.85)"/><path class="ak" d="M279.495,40.152c-.285-.818-.873-1.35-1.314-1.194s-.57.919-.294,1.745.919,1.341,1.314,1.194S279.816,40.96,279.495,40.152Z" transform="translate(707.781 814.152)"/><path class="am" d="M275.07,52.306c1-.294,5.337-2.186,5.337-2.186s-.413,3.932-2.095,4.143S275.07,52.306,275.07,52.306Z" transform="translate(707.999 813.242)"/><path class="an" d="M275.64,52.417c.845-.248,4.492-1.837,4.492-1.837a2.655,2.655,0,0,1-1.837,2.6A3.252,3.252,0,0,1,275.64,52.417Z" transform="translate(707.953 813.205)"/><path class="aj" d="M277.379,55.882c-.165.524,3.114.5,3.583-1.332a8.149,8.149,0,0,1-1.994.919C278.215,55.68,277.536,55.386,277.379,55.882Z" transform="translate(707.812 812.883)"/><path class="ao" d="M228.292,56.083l-4.492-1.2s-.7,2.756,1.323,3.261S228.292,56.083,228.292,56.083Z" transform="translate(712.178 812.855)"/><path class="ap" d="M228,56.2l-3.886-1.038s-.606,2.361,1.148,2.82S228,56.2,228,56.2Z" transform="translate(712.152 812.832)"/><path class="ao" d="M224.024,54.7a.276.276,0,0,0-.312-.22.266.266,0,0,0-.193.331.259.259,0,1,0,.505-.11Z" transform="translate(712.192 812.889)"/><path class="ao" d="M228.895,56.112a.259.259,0,1,0-.2.308A.259.259,0,0,0,228.895,56.112Z" transform="translate(711.796 812.773)"/><path class="b" d="M223.12,58.429c-.046-.1.6.4,1.406.753.514.22,1.323.294,1.332.358C225.876,60.018,223.928,60.542,223.12,58.429Z" transform="translate(712.224 812.566)"/></g></svg>