<svg xmlns="http://www.w3.org/2000/svg" width="129.089" height="205.037" viewBox="0 0 129.089 205.037"><defs><style>.a{fill:#ffae85;}.b{fill:#ffedc5;}.c{fill:#ffe6b3;}.d{fill:#ffcd9c;}.e{fill:#d8b979;}.f{fill:#e2bd86;}.g{fill:#513329;}.h{fill:#42271f;}.i{fill:#ef8f6f;}.j{fill:#f4e4bd;}.k{fill:#ffc397;}.l{fill:#687c82;}.m{fill:#ffeabb;}.n{fill:#f2d7a2;}.o{fill:#8c584b;}.p{fill:#a0513c;opacity:0.5;}.q{fill:#994c31;}.r{fill:#7c3823;}.s{fill:#f7a27c;}.t{fill:#543c32;}.u{fill:#d1b7b0;}.v{fill:#4f2119;}.w{fill:#fff2de;}</style></defs><g transform="translate(7518.05 -16896.457)"><path class="a" d="M676.962,587.439c1.168-1.378,5.3-2.254,4.681-3.65-.557-1.268-3.23-2.327-5.594,2.737Z" transform="translate(-8083.607 16359.6)"/><path class="a" d="M677.858,584.053c.849,2.309,3.5,1.058,4.27.465a2.381,2.381,0,0,0,0-3.084C681.453,580.978,677.539,583.168,677.858,584.053Z" transform="translate(-8083.764 16359.719)"/><path class="a" d="M682.4,581.506c.976-.776,1.332-1.414,1.122-1.652s-.739.228-1.715.995-2.372,1.5-2.172,1.743S681.436,582.272,682.4,581.506Z" transform="translate(-8083.92 16359.857)"/><path class="a" d="M682.511,583.077c1.113-.557,1.414-1.36,1.259-1.642s-1.068.493-2.181,1.049-1.825.995-1.652,1.278S681.407,583.642,682.511,583.077Z" transform="translate(-8083.946 16359.719)"/><path class="a" d="M681.908,585.044c1.1-.575,1.615-1.159,1.46-1.442s-.821.237-1.925.812-1.871.995-1.725,1.278S680.8,585.619,681.908,585.044Z" transform="translate(-8083.927 16359.53)"/><path class="a" d="M679.892,582.66c.493-1.414.11-2.436-.42-2.4-.183,0-2.236,3.65-1.643,4.079C678.259,584.667,679.408,584.074,679.892,582.66Z" transform="translate(-8083.754 16359.816)"/><path class="a" d="M680.622,578.75c.328-.657.338-1.332.785-1.241s.274.912-.064,1.533c-.63,1.2-1.825,3.467-2.153,1.524C679.126,580.21,680.276,579.462,680.622,578.75Z" transform="translate(-8083.882 16360.058)"/><path class="b" d="M664.78,570.241c.064-.164,14.892,9.125,15.759,9.362,3.2-10.95,6.269-15.567,13.121-23.87L677.7,546.06C671.742,553.606,668.914,560.085,664.78,570.241Z" transform="translate(-8082.621 16362.81)"/><path class="c" d="M678.51,560.9a36.243,36.243,0,0,1,12.875-2.309c.721-.913,1.487-1.825,2.309-2.856l-15.959-9.672c-5.785,7.3-8.623,13.687-12.574,23.323a34.52,34.52,0,0,1,13.35-8.486Z" transform="translate(-8082.654 16362.81)"/><path class="d" d="M682.493,584.159c-.62.055-1.15,0-1.214-.3s.392-.593,1-.639,1.168.155,1.223.456S683.1,584.114,682.493,584.159Z" transform="translate(-8084.064 16359.558)"/><path class="d" d="M683.078,580.387c-.538-.557-.839-1.159-1.058-.912a1.414,1.414,0,0,0,.365,1.6c.529.557,1.359.62,1.569.4S683.607,580.935,683.078,580.387Z" transform="translate(-8084.121 16359.891)"/><path class="d" d="M684.026,578.6c.1-.7.392-1.268.082-1.3s-.912.475-1.04,1.177.347,1.332.657,1.36S683.917,579.3,684.026,578.6Z" transform="translate(-8084.22 16360.075)"/><path class="e" d="M679.053,550.1l11.826,7.072-.438.493-11.771-7.126Z" transform="translate(-8083.837 16362.456)"/><path class="e" d="M677.783,551.43l11.826,7.072-.438.5L677.4,551.868Z" transform="translate(-8083.726 16362.339)"/><path class="e" d="M676.813,553.25l11.826,7.072-.438.493-11.771-7.127Z" transform="translate(-8083.641 16362.18)"/><path class="e" d="M675.543,554.88l11.826,7.072-.438.5-11.771-7.127Z" transform="translate(-8083.53 16362.037)"/><path class="e" d="M674.513,556.7l6.634,3.978-.438.5-6.579-4.042Z" transform="translate(-8083.439 16361.879)"/><path class="e" d="M673.483,558.15l8.842,5.2-.438.493L673.1,558.6Z" transform="translate(-8083.35 16361.752)"/><path class="a" d="M573.885,593.939c-1.168-1.378-5.3-2.254-4.681-3.65.557-1.268,3.23-2.327,5.594,2.737Z" transform="translate(-8074.251 16359.03)"/><path class="a" d="M573.067,590.553c-.849,2.309-3.513,1.058-4.27.465a2.4,2.4,0,0,1,0-3.084C569.471,587.478,573.386,589.668,573.067,590.553Z" transform="translate(-8074.171 16359.15)"/><path class="a" d="M568.6,588.006c-.967-.776-1.323-1.414-1.113-1.652s.739.228,1.706.995,2.382,1.5,2.172,1.743S569.574,588.763,568.6,588.006Z" transform="translate(-8074.101 16359.288)"/><path class="a" d="M568.5,589.577c-1.1-.557-1.405-1.36-1.259-1.642s1.077.493,2.181,1.049,1.825.995,1.652,1.277S569.609,590.142,568.5,589.577Z" transform="translate(-8074.082 16359.149)"/><path class="a" d="M569.127,591.544c-1.1-.575-1.615-1.159-1.46-1.442s.821.237,1.925.812,1.871.995,1.715,1.278S570.231,592.119,569.127,591.544Z" transform="translate(-8074.119 16358.962)"/><path class="a" d="M571.259,589.16c-.484-1.414-.1-2.436.42-2.4.183,0,2.245,3.65,1.642,4.079C572.9,591.167,571.751,590.574,571.259,589.16Z" transform="translate(-8074.417 16359.248)"/><path class="a" d="M570.52,585.25c-.319-.657-.338-1.332-.776-1.241s-.274.912.064,1.533c.62,1.2,1.825,3.467,2.153,1.524C572.026,586.738,570.867,585.962,570.52,585.25Z" transform="translate(-8074.281 16359.488)"/><path class="b" d="M583.84,576.741c-.073-.164-14.892,9.125-15.759,9.362-3.2-10.95-6.278-15.567-13.121-23.87l15.959-9.672C576.9,560.106,579.7,566.585,583.84,576.741Z" transform="translate(-8073.01 16362.24)"/><path class="c" d="M570.144,567.4a36.244,36.244,0,0,0-12.875-2.309c-.721-.912-1.487-1.825-2.309-2.856l15.959-9.672c5.776,7.3,8.614,13.687,12.565,23.323a34.474,34.474,0,0,0-13.341-8.486Z" transform="translate(-8073.01 16362.24)"/><path class="d" d="M568.682,590.659c.611.055,1.15,0,1.214-.3s-.392-.593-1.013-.639-1.159.155-1.214.456S568.071,590.614,568.682,590.659Z" transform="translate(-8074.122 16358.989)"/><path class="d" d="M568.111,586.907c.538-.557.839-1.159,1.058-.913a1.414,1.414,0,0,1-.365,1.6c-.529.557-1.36.62-1.579.4S567.581,587.436,568.111,586.907Z" transform="translate(-8074.079 16359.319)"/><path class="d" d="M567.249,585.1c-.109-.7-.392-1.268-.082-1.3s.912.475,1.04,1.177a1.207,1.207,0,0,1-.657,1.36C567.249,586.364,567.358,585.807,567.249,585.1Z" transform="translate(-8074.066 16359.507)"/><path class="e" d="M571.157,556.6l-11.817,7.072.438.493,11.771-7.126Z" transform="translate(-8073.393 16361.887)"/><path class="e" d="M572.427,557.93,560.61,565l.438.5,11.771-7.136Z" transform="translate(-8073.504 16361.771)"/><path class="e" d="M573.4,559.75l-11.817,7.072.438.493,11.771-7.126Z" transform="translate(-8073.589 16361.611)"/><path class="e" d="M574.667,561.38l-11.817,7.072.438.5,11.771-7.126Z" transform="translate(-8073.7 16361.469)"/><path class="e" d="M576.195,563.2l-6.625,3.978.438.5,6.579-4.042Z" transform="translate(-8074.289 16361.31)"/><path class="e" d="M577.012,564.65l-8.842,5.2.447.493L577.4,565.1Z" transform="translate(-8074.166 16361.183)"/><path class="f" d="M662.2,615.3c0-2.345-.812-4.243-1.825-4.243s-1.825,1.9-1.825,4.243.8,4.252,1.825,4.252S662.2,617.657,662.2,615.3Z" transform="translate(-8082.076 16357.12)"/><path class="f" d="M597.574,621.415c-.639-1.825-2.081-2.984-3.23-2.582s-1.551,2.208-.912,4.033,2.09,2.984,3.239,2.582S598.249,623.24,597.574,621.415Z" transform="translate(-8076.35 16356.447)"/><path class="g" d="M653.463,746.494c-1.369-9.389-3.477-43.562-3.732-50.661-.484-13.569-1.5-43.16-7.3-56.574,0,0-26.635-2.929-27.119,5.028-1.022,17.036,2.1,48.708,1.588,54.311-.237,2.564-1.232,6.2-1.715,12.2-1.013,12.574-.182,30.586.538,35.669h1.4s3.586-18.7,5.393-32.776c.757-5.922-.064-11.251.119-14.244.2-3.239,2.92-10.53,4.471-17.775,1.725-8.066,3.951-15.859,5.475-16.5,1.989-.83,3.65,11.57,11.132,33.424.52,1.524-1.058,5.8,0,14.134a185.972,185.972,0,0,0,7.218,33.762Z" transform="translate(-8078.24 16354.698)"/><path class="h" d="M617.269,746.08c-.712-5.083.091-20.868,1.1-33.442.484-6,.228-10.092.456-12.656.511-5.6-.985-28.98,0-46.007.064-1.086,28.36-.839,25.622-7.683-1.825.839-29.053-3.084-29.2-1.478-1.022,17.036,2.1,48.708,1.588,54.311-.237,2.564-1.232,6.2-1.715,12.2-1.013,12.574-.182,30.586.538,35.669h1.4l.173-.913Z" transform="translate(-8078.234 16354.2)"/><path class="h" d="M654.151,748.01a186.859,186.859,0,0,1-7.227-33.762c-1.049-8.331,1.688-13.806,1.159-15.33-7.519-21.854-11.251-33.223-13.231-32.393-.328.137-.639.63-.912,1.387a1.222,1.222,0,0,1,.374-.31c1.989-.83,3.65,11.57,11.132,33.424.52,1.524-1.058,5.8,0,14.134a185.974,185.974,0,0,0,7.218,33.762h2.518c0-.283-.082-.584-.119-.912Z" transform="translate(-8079.922 16352.271)"/><path class="i" d="M618.232,587.954l-.913-12.948,9.581-1.186,1.177,14.043S620.459,590.482,618.232,587.954Z" transform="translate(-8078.468 16360.38)"/><path class="j" d="M635.421,584.569c8.586-.465,19.08,19.162,22.383,24.564,2.226,3.65-4.061,10.037-8.094,6.561C647.31,613.641,624.59,585.153,635.421,584.569Z" transform="translate(-8079.797 16359.439)"/><path class="f" d="M649.8,614.961a28.726,28.726,0,0,1,6.387-9.061l.493.411L654,617.333Z" transform="translate(-8081.31 16357.572)"/><path class="f" d="M651.263,613.644c-1.825-1.378-15.731-16.26-18.633-24.564,1.268,8.094,15.311,25.942,17.164,27.53,3.276,2.8,7.957-1.369,8.44-4.791C656.619,614,653.69,615.469,651.263,613.644Z" transform="translate(-8079.808 16359.044)"/><path class="j" d="M614.693,588.834c4.1,7.364-8.988,28.041-14.235,31.809-3.413,2.445-10.037-2.208-7.473-6.771C594.618,610.925,609.519,579.49,614.693,588.834Z" transform="translate(-8076.288 16359.217)"/><path class="f" d="M596.42,609.956l.228-.456s5.594,1.889,7.875,7.017l-1.944,2.108Z" transform="translate(-8076.638 16357.257)"/><path class="f" d="M600.8,616.872c-2.4,1.725-6.387-.064-7.647-2.865-.064.128-.128.237-.173.319-2.555,4.562,4.061,9.216,7.473,6.771,4.562-3.267,15.029-19.3,15.01-28.287C613.187,601.862,604.738,614.053,600.8,616.872Z" transform="translate(-8076.288 16358.718)"/><path class="k" d="M674.824,585.17c-5.01,5.831-23.9,22.118-21.544,29.719,1.715,3.34,4.8,2.217,8.212.383s8.459-18.824,14.746-28.725Z" transform="translate(-8081.597 16359.387)"/><path class="i" d="M658.427,611c-1.9-6.141,10.95-19.691,16.6-25.659l-.2-.173c-5.01,5.831-23.9,22.118-21.544,29.719,1.715,3.34,4.8,2.217,8.212.383,1.934-1.022,4.353-6.88,7.218-13.578C665.608,607.827,661.028,616.039,658.427,611Z" transform="translate(-8081.597 16359.387)"/><path class="k" d="M574.522,592.15C580,597.625,601.1,611.978,599.3,619.725c-1.487,3.449-5.758,3.093-9.317,1.515s-9.791-18.359-16.79-27.776Z" transform="translate(-8074.605 16358.775)"/><path class="i" d="M576.6,594c6.305,5.785,19.244,15.448,17.948,21.845-1.049,2.427-4.061,2.181-6.57,1.068-1.068-.475-3.13-3.723-5.521-7.8,3.175,6.178,5.885,11.47,7.82,12.328,3.559,1.579,7.829,1.934,9.316-1.515C601.237,612.815,583.8,600.26,576.6,594Z" transform="translate(-8074.904 16358.613)"/><path class="j" d="M614.915,643.408c.858,1.825,28.67.794,29.263-2.591.292-1.615-2.135-14.39-4.179-27.676-2.217-14.481-2.236-27.931-5.968-28.862-7.172-1.825-21.808.5-23.889,4.38-1.4,2.591,1.369,14.727,2.582,27.867C613.848,628.58,613.966,641.455,614.915,643.408Z" transform="translate(-8077.806 16359.52)"/><path class="f" d="M625.39,586.33c3.422,18.14,5.867,35.331,4.307,48.361l2.372,3.832,2.637-4.334c-.584-13.039-3.869-30.349-8.066-47.969Z" transform="translate(-8079.174 16359.295)"/><path class="f" d="M616.249,643.767c-.913-2-1.077-14.828-2.19-26.882-.721-7.729-1.825-9.535-3.029-13.5.3,3.96.593,6.013,1.442,15.092,1.113,12.054,1.442,25.148,2.391,27.146.858,1.825,28.834.3,29.427-3.084a2.3,2.3,0,0,0,0-.31C638.915,644.753,617.007,645.355,616.249,643.767Z" transform="translate(-8077.917 16357.792)"/><path class="f" d="M623.2,588.77l1.277-4.38-6.46.383-1.825.757Z" transform="translate(-8078.369 16359.454)"/><path class="f" d="M629.391,587.832l-3.121-3.686,2.664-.876,1.861.493Z" transform="translate(-8079.25 16359.553)"/><path class="l" d="M623.86,585.8l.319-2.61,2.418-.128,1.9,1.98-2.354,2.354Z" transform="translate(-8079.04 16359.571)"/><path class="j" d="M623.086,587.338l1.287-4.38-7.09-.228-.593,2.281Z" transform="translate(-8078.412 16359.601)"/><path class="j" d="M629.017,586.455l-2.537-3.6,2.254-1.049,1.715,1.506Z" transform="translate(-8079.269 16359.681)"/><path class="l" d="M625.61,586.3c3.96,18,6.917,35.039,5.721,47.814l2.491,3.851,2.509-4.188c-.958-12.893-4.754-30.112-9.472-47.595Z" transform="translate(-8079.193 16359.299)"/><path class="f" d="M611.28,608.757a20.126,20.126,0,0,1,2.126-3.951c.374-.666-1.3,6.159-1.3,6.159Z" transform="translate(-8077.939 16357.672)"/><path class="f" d="M641.555,605.454a19.656,19.656,0,0,1-1.4-4.27c-.219-.721,3.577,5.183,3.577,5.183Z" transform="translate(-8080.466 16357.99)"/><path class="f" d="M642.073,605.651a8.524,8.524,0,0,0-2.336-1.542c-.392-.246,3.376,4.134,3.376,4.134Z" transform="translate(-8080.427 16357.729)"/><path class="m" d="M652.557,619.665c-1.67-1.3-2.509-5.648,4.106-14.545l.8.173s-1.542,12.09,2.619,13.687C660.085,618.981,655.6,622,652.557,619.665Z" transform="translate(-8081.448 16357.641)"/><path class="m" d="M596.294,609.68c3.367,1.651,7.811,6.1,7.017,11.579a7.026,7.026,0,0,1-6.615,3.477s2.108-9.234-1.086-14.317Z" transform="translate(-8076.567 16357.241)"/><path class="n" d="M598.809,618.14a4.561,4.561,0,0,1-1.323-.21,32.849,32.849,0,0,1-.666,7.391,7.026,7.026,0,0,0,6.615-3.477,9.325,9.325,0,0,0-.912-5.475,4.854,4.854,0,0,1-3.714,1.77Z" transform="translate(-8076.673 16356.656)"/><path class="n" d="M657.416,614.8a4.349,4.349,0,0,1-.912.11,5.138,5.138,0,0,1-4.024-2.245c-1.889,4.371-1.131,6.761,0,7.665,3.02,2.336,7.528-.684,7.528-.684C658.566,619.056,657.809,617.076,657.416,614.8Z" transform="translate(-8081.444 16356.98)"/><path class="f" d="M642.9,616.532c-1.3-3.568-2.208-11.552-2.208-11.552l.913.812Z" transform="translate(-8080.513 16357.652)"/><path class="h" d="M627.78,664.642c1.67.684,8.44,1.825,12.09-.912,0,0-2.363,3.449-6.132,3.65A7.364,7.364,0,0,1,627.78,664.642Z" transform="translate(-8079.383 16352.511)"/><path class="o" d="M635,651.83l-2.893.146.164,1.515,2.893-.146Z" transform="translate(-8079.762 16353.553)"/><path class="p" d="M621.984,590.345c6.725-.484,12.081-2.482,13.97-4.617-.529-1.3-1.168-2.108-1.989-2.309a24.044,24.044,0,0,0-5.128-.6h0l.091-.192-1.679-1.515-.374.173-.62-7.464-9.581,1.186.465,6.953h-.484l-.593,2.281.246.082-.274.109c-2.929.867-5.192,2.026-5.913,3.376h0c-.374.338-.748.712-1.131,1.122C611.937,590.108,616.755,590.728,621.984,590.345Z" transform="translate(-8077.738 16360.38)"/><path class="q" d="M618.91,553.509c0-3.276,1.606-14.6,6-14.18s3.039,4.435,3.039,4.435,3.6,0,3.495,2.391-8.212,9.034-8.212,9.034Z" transform="translate(-8078.607 16363.399)"/><path class="q" d="M615.583,555.763c-3.6-1.487-15.33-8.331-12.875-12.975s6.241-1.332,6.241-1.332-1.113-3.842,1.67-4.216,8.751,14.536,8.751,14.536Z" transform="translate(-8077.159 16363.582)"/><path class="q" d="M616.361,551.129c-2.09-3.285-7.765-15.622-3.084-18.012s5.876,2.482,5.876,2.482,1.287-3.778,3.778-2.482-1.2,16.917-1.2,16.917Z" transform="translate(-8077.956 16364)"/><path class="q" d="M614.973,570.821c-4.781-3.285-13.222-13.067-12.547-18.314.995-7.765,14.335-14.235,17.337-6.67C622.638,553.164,614.973,570.821,614.973,570.821Z" transform="translate(-8077.161 16363.124)"/><path class="r" d="M610.73,549.57c-2.975.821-5.42,1.67-7.72.913a8.212,8.212,0,0,0-.584,2.144c-.675,5.247,7.765,15.028,12.547,18.313,0,0,10.731-18.158,13.094-21.352C618.86,536.951,610.347,548.129,610.73,549.57Z" transform="translate(-8077.161 16363.021)"/><path class="k" d="M611.816,557.727s2.683,14.956,6.47,16.479,13.751,2.382,13.861.913c.493-6.542-1.542-16.187-3.714-19.682-.684-1.1.548-2.363,0-3.3-3.477-6.132-9.417-8.532-13.687-6.141C609.845,548.776,610.429,552.508,611.816,557.727Z" transform="translate(-8077.9 16362.896)"/><path class="s" d="M621.055,561.876c.849.255,4.051-.748,4.216-1.542a48.412,48.412,0,0,0-.283-5.594s-4.161,2.455-4.161,2.966S619.914,561.529,621.055,561.876Z" transform="translate(-8078.745 16362.05)"/><path class="s" d="M629.987,553.626a4.051,4.051,0,0,0-1.825-.073c-2.482.584.219,2.217,1.369,7.126.985,4.188,1.825,9.49,4,9.955-.456-5.667-2.008-11.8-3.65-14.435C629.331,555.36,629.914,554.438,629.987,553.626Z" transform="translate(-8079.328 16362.16)"/><path class="t" d="M628.312,557.893c-.21-.912,0-1.67.474-1.825s1.013.5,1.223,1.378,0,1.679-.484,1.825S628.513,558.741,628.312,557.893Z" transform="translate(-8079.422 16361.936)"/><path class="k" d="M615.49,568.706c-.055,2.29-6.917.912-7.172-1.9C607.825,561.333,615.59,564.025,615.49,568.706Z" transform="translate(-8077.678 16361.26)"/><path class="i" d="M614.368,568.219c0,1.506-4.562.611-4.7-1.241C609.34,563.383,614.441,565.144,614.368,568.219Z" transform="translate(-8077.796 16361.154)"/><path class="k" d="M614.974,568.717c0,.785-2.372.319-2.455-.648C612.346,566.19,615.01,567.112,614.974,568.717Z" transform="translate(-8078.046 16360.975)"/><path class="r" d="M614.7,566.233c.776.748,3.878,1.569,3.285-.912s-5.749-17.173-8.358-14.335S612.3,563.915,614.7,566.233Z" transform="translate(-8077.732 16362.41)"/><path class="u" d="M653.08,756.837H662.2s-5.019-3.367-5.913-3.367C654.932,753.47,653.08,756.837,653.08,756.837Z" transform="translate(-8081.597 16344.656)"/><path class="u" d="M620.366,756.837H612.61s3.422-3.367,4.362-3.367C618.441,753.47,620.366,756.837,620.366,756.837Z" transform="translate(-8078.055 16344.656)"/><path class="k" d="M626.86,554.62c1.971,2.582,8.44,10.667,8.285,10.9-.411.62-3.577,1.9-4.635.985S626.86,554.62,626.86,554.62Z" transform="translate(-8079.302 16362.061)"/><path class="q" d="M624.732,553a13.113,13.113,0,0,0-4.562,3.4l.657,1.442a26.465,26.465,0,0,1,4.663-3.02Z" transform="translate(-8078.717 16362.202)"/><path class="q" d="M627.671,554.175a7.611,7.611,0,0,1,2.628-.228s.082-1.487-.748-1.734a5.887,5.887,0,0,0-2.6.164Z" transform="translate(-8079.31 16362.278)"/><path class="v" d="M631.979,568.831c-.575-.639-3.486.5-4.7.5-1,0,1.9,4.635,3.358,4.206S632.29,569.178,631.979,568.831Z" transform="translate(-8079.321 16360.834)"/><path class="w" d="M631.728,569l-.219,1.314-3.2.693s-1.022-1.5-.538-1.442C628.762,569.643,630.122,568.721,631.728,569Z" transform="translate(-8079.371 16360.807)"/><path class="v" d="M626.86,569.41a.338.338,0,0,1,.3-.31.256.256,0,0,1,.31.228.31.31,0,0,1-.292.3.255.255,0,0,1-.319-.219Z" transform="translate(-8079.302 16360.793)"/><path class="v" d="M632.16,568.84a.319.319,0,0,1,.3-.3.246.246,0,0,1,.31.219.319.319,0,0,1-.292.3.255.255,0,0,1-.319-.219Z" transform="translate(-8079.766 16360.843)"/><path class="t" d="M622.8,559.913c-.219-.913,0-1.679.447-1.825s1.031.493,1.25,1.36,0,1.679-.438,1.825S623.03,560.743,622.8,559.913Z" transform="translate(-8078.939 16361.759)"/></g></svg>